<svg width="199" height="245" viewBox="0 0 199 245" fill="none" xmlns="http://www.w3.org/2000/svg">
<g clip-path="url(#clip0_211_885)">
<path opacity="0.3" d="M100.565 3.76764C85.7685 10.5817 78.034 26.5826 68.7942 40.0182C61.1666 51.0885 51.9132 60.9423 41.347 69.2463C33.4843 75.419 24.9011 80.7259 17.7751 87.7324C8.56038 96.5625 2.4957 108.177 0.512505 120.792C-0.43174 127.063 -0.0653098 133.461 1.58858 139.583C3.24248 145.704 6.14781 151.415 10.1206 156.354C17.8872 165.556 29.1927 170.783 39.2973 177.341C48.9741 183.616 57.7228 191.22 65.2872 199.931C70.3314 205.767 74.8953 212.068 80.0517 217.744C93.7432 232.574 115.602 243.926 136.291 241.008C175.172 235.54 202.891 193.807 198.536 155.873C196.518 138.236 189.088 121.45 179.015 106.812C171.825 96.3421 163.13 86.61 158.806 74.6494C154.082 61.5665 155.059 47.1529 152.545 33.4607C147.837 8.19275 125.418 -7.64784 100.565 3.76764Z" fill="#3E4095"/>
<path d="M147.837 17.2036H46.6474C35.9984 17.2036 27.3511 24.0016 27.3511 32.4029V213.576C27.3511 221.977 35.9984 228.791 46.6474 228.791H147.837C158.486 228.791 167.053 221.977 167.053 213.576V32.4029C167.053 24.0016 158.406 17.2036 147.837 17.2036Z" fill="#5A5A5A"/>
<path d="M147.212 22.0132H47.1918C39.1851 22.0132 32.6035 27.1598 32.6035 33.5088V212.469C32.6035 218.882 39.137 223.965 47.1918 223.965H147.212C155.219 223.965 161.801 218.818 161.801 212.469V33.5088C161.801 27.1598 155.267 22.0132 147.212 22.0132Z" fill="#E3ECFF"/>
<path d="M22.5951 76.1888C19.6476 76.1888 16.8209 75.0165 14.7367 72.9298C12.6526 70.8431 11.4817 68.0129 11.4817 65.0619L37.2314 22.0454H59.4422L33.6924 64.9657C33.7051 66.4336 33.4276 67.8896 32.8757 69.2496C32.3239 70.6097 31.5087 71.847 30.4772 72.8902C29.4457 73.9334 28.2182 74.762 26.8654 75.3281C25.5126 75.8942 24.0613 76.1867 22.5951 76.1888Z" fill="#3E4095"/>
<path d="M44.7577 76.1888C43.2915 76.1867 41.8402 75.8942 40.4874 75.3281C39.1346 74.762 37.9071 73.9334 36.8756 72.8902C35.844 71.847 35.0289 70.6097 34.477 69.2496C33.9252 67.8896 33.6477 66.4336 33.6603 64.9657L59.4101 21.9492H81.6208L55.8711 64.9657C55.8838 66.435 55.6057 67.8922 55.0529 69.2533C54.5001 70.6144 53.6834 71.8524 52.6502 72.8959C51.617 73.9393 50.3876 74.7675 49.0329 75.3327C47.6783 75.8979 46.2253 76.1889 44.7577 76.1888V76.1888Z" fill="#F58634"/>
<path d="M66.9365 76.1888C63.9918 76.1846 61.1692 75.0104 59.0885 72.9242C57.0078 70.8379 55.8391 68.0102 55.8391 65.0619L81.5728 22.0454H103.8L78.0499 64.9657C78.0625 66.435 77.7845 67.8922 77.2316 69.2533C76.6788 70.6144 75.8622 71.8524 74.829 72.8959C73.7958 73.9393 72.5663 74.7675 71.2117 75.3327C69.857 75.8979 68.404 76.1889 66.9365 76.1888Z" fill="#3E4095"/>
<path d="M89.1153 76.1888C86.1679 76.1888 83.3412 75.0165 81.257 72.9298C79.1728 70.8431 78.002 68.0129 78.002 65.0619L103.752 22.0454H125.962L100.213 64.9657C100.225 66.4336 99.9478 67.8896 99.396 69.2496C98.8442 70.6097 98.029 71.847 96.9975 72.8902C95.9659 73.9334 94.7384 74.762 93.3856 75.3281C92.0328 75.8942 90.5815 76.1867 89.1153 76.1888Z" fill="#F58634"/>
<path d="M111.294 76.1888C108.347 76.1888 105.52 75.0165 103.436 72.9298C101.352 70.8431 100.181 68.0129 100.181 65.0619L125.93 22.0454H148.141L122.391 64.9657C122.404 66.4336 122.127 67.8896 121.575 69.2496C121.023 70.6097 120.208 71.847 119.176 72.8902C118.145 73.9334 116.917 74.762 115.564 75.3281C114.212 75.8942 112.76 76.1867 111.294 76.1888Z" fill="#3E4095"/>
<path d="M148.184 22.0146L122.243 64.9784C122.186 66.4741 122.868 67.9532 123.401 69.3518C123.933 70.7504 124.742 72.027 125.779 73.1053C126.816 74.1835 128.059 75.0413 129.435 75.6271C130.81 76.213 132.29 76.515 133.785 76.515C135.28 76.515 136.759 76.213 138.135 75.6271C139.511 75.0413 140.754 74.1835 141.791 73.1053C142.828 72.027 143.637 70.7504 144.169 69.3518C144.702 67.9532 144.947 66.4615 144.89 64.9658L161.961 36.4271V33.4449C161.961 27.4326 155.758 22.4155 148.184 22.0146Z" fill="#F58634"/>
<path d="M113.84 188.804H67.8652V191.642H113.84V188.804Z" fill="#5C73D1"/>
<path d="M113.84 182.199H67.8652V185.037H113.84V182.199Z" fill="#5C73D1"/>
<path d="M113.84 195.394H67.8652V198.232H113.84V195.394Z" fill="#5C73D1"/>
<path d="M125.482 182.199H119.333V188.355H125.482V182.199Z" fill="#3E4095"/>
<path d="M125.482 191.642H119.333V197.799H125.482V191.642Z" fill="#F58634"/>
<circle cx="97" cy="129" r="25" fill="#5C73D1"/>
<circle cx="97.1718" cy="128.796" r="15.3974" fill="#3E4095"/>
<path d="M104.382 123.925L94.5255 134.028L90.0452 129.436" stroke="white" stroke-width="5" stroke-linecap="round" stroke-linejoin="round"/>
</g>
<defs>
<clipPath id="clip0_211_885">
<rect width="199" height="245" fill="white"/>
</clipPath>
</defs>
</svg>
