<svg width="390" height="381" viewBox="0 0 390 381" fill="none" xmlns="http://www.w3.org/2000/svg">
<path d="M-530 -208.5L-530 163.688C-530 408.742 -530 404.596 -504.5 350.243C-479 295.889 -418.5 317.538 -418.5 317.538C-418.5 317.538 -352.959 253.867 -297.5 238.31C-246.505 224.005 -212.534 250.867 -161 238.31C-102.691 224.102 -86.4476 181.993 -29.5001 163.688C57.8875 135.598 118.782 187.983 207.5 163.688C284.73 142.539 306.709 85.3611 384.5 66.0347C458.78 47.5806 512.758 97.8586 581.5 66.0347C625.071 45.8636 631.188 11.1336 672.5 -12.7329C755.475 -60.669 920 -50.0439 920 -50.0439L920 -208.5L-530 -208.5Z" fill="#3E4095"/>
</svg>
