<svg width="390" height="389" viewBox="0 0 390 389" fill="none" xmlns="http://www.w3.org/2000/svg">
<path d="M-206 -200V172.188C-206 417.242 -206 413.096 -180.5 358.743C-155 304.389 -94.5 326.038 -94.5 326.038C-94.5 326.038 -28.9589 262.367 26.5 246.81C77.495 232.505 111.466 259.367 163 246.81C221.309 232.602 237.552 190.493 294.5 172.188C381.888 144.098 442.782 196.483 531.5 172.188C608.73 151.039 630.709 93.8613 708.5 74.5349C782.78 56.0808 836.758 106.359 905.5 74.5349C949.071 54.3638 955.188 19.6339 996.5 -4.2327C1079.47 -52.1687 1244 -41.5436 1244 -41.5436V-200H-206Z" fill="#3E4095"/>
</svg>
