<svg width="206" height="242" viewBox="0 0 206 242" fill="none" xmlns="http://www.w3.org/2000/svg">
<path opacity="0.3" d="M100.565 3.76764C85.7685 10.5817 78.034 26.5826 68.7942 40.0182C61.1666 51.0885 51.9132 60.9423 41.347 69.2463C33.4843 75.419 24.9011 80.7259 17.7751 87.7323C8.56038 96.5624 2.4957 108.177 0.512505 120.792C-0.43174 127.063 -0.0653099 133.461 1.58858 139.583C3.24248 145.704 6.14781 151.415 10.1206 156.354C17.8872 165.556 29.1927 170.783 39.2973 177.341C48.9741 183.616 57.7228 191.22 65.2872 199.931C70.3314 205.767 74.8953 212.068 80.0517 217.744C93.7432 232.574 115.602 243.926 136.291 241.008C175.172 235.54 202.891 193.807 198.536 155.873C196.518 138.236 189.088 121.45 179.015 106.812C171.825 96.3421 163.13 86.61 158.806 74.6494C154.082 61.5665 155.059 47.1529 152.545 33.4607C147.837 8.19274 125.418 -7.64784 100.565 3.76764Z" fill="#3E4095"/>
<path opacity="0.3" d="M175.369 89.5113C163.992 95.4606 146.22 101.829 124.814 99.5073C92.3252 95.9848 51.4286 89.1683 31.824 101.907C32.4725 90.4047 35.3677 80.4143 40.9691 72.9656C47.8316 71.37 56.558 71.3049 67.5788 74.1555C91.4599 80.3318 122.468 87.0789 145.759 85.9002C153.274 87.7396 162.576 89.0417 174.571 89.4698C174.841 89.4797 175.106 89.4927 175.369 89.5113Z" fill="white"/>
<path opacity="0.3" d="M190.69 123.922C189.269 131.391 186.483 138.307 182.621 144.435C174.396 146.914 163.454 147.826 149.282 144.725C114.655 137.149 76.6762 137.286 48.614 153.755C48.1284 153.246 47.6527 152.726 47.1844 152.199C40.9196 145.133 36.3997 136.732 33.9883 127.687C43.7943 123.034 68.3543 113.997 100.012 121.234C133.398 128.865 171.672 134.931 190.69 123.922Z" fill="white"/>
<path opacity="0.6" d="M101.588 191.818C154.38 191.818 197.177 188.691 197.177 184.834C197.177 180.977 154.38 177.85 101.588 177.85C48.7963 177.85 6 180.977 6 184.834C6 188.691 48.7963 191.818 101.588 191.818Z" fill="#D1E3F1"/>
<path d="M183.573 163.157C188.683 157.073 193.662 150.415 196.44 145.617C200.071 139.349 201.626 134.272 201.06 130.527C201.022 130.279 200.791 130.108 200.544 130.145C200.296 130.183 200.125 130.415 200.163 130.663C201.151 137.209 195.06 148.374 182.544 162.976L183.573 163.157Z" fill="#1C47C1"/>
<path d="M199.212 139.759C199.212 139.759 202.276 142 206 136.45C206 136.45 200.337 134.352 199.212 139.759Z" fill="#0172D0"/>
<path d="M197.44 142.72C197.44 142.72 199.844 139.78 194.518 135.748C194.518 135.748 192.112 141.293 197.44 142.72Z" fill="#0172D0"/>
<path d="M200.629 133.443C200.629 133.443 203.875 131.474 200.196 125.894C200.196 125.895 196.081 130.319 200.629 133.443Z" fill="#0172D0"/>
<path d="M194.058 148.786C194.058 148.786 196.185 151.934 201.564 147.972C201.564 147.973 196.944 144.08 194.058 148.786Z" fill="#0172D0"/>
<path d="M191.798 151.53C191.798 151.53 194.674 149.051 190.125 144.157C190.125 144.157 186.796 149.202 191.798 151.53Z" fill="#0172D0"/>
<path d="M189.074 155.593C189.074 155.593 191.141 158.779 196.594 154.921C196.594 154.921 192.048 150.941 189.074 155.593Z" fill="#0172D0"/>
<path d="M108.784 59.9072C103.063 60.8377 102.526 66.3707 98.0678 65.6765C93.6104 64.9823 89.853 67.3583 90.1745 71.333C90.4972 75.3089 90.9562 78.2166 86.2796 79.4077C81.603 80.5981 78.6551 85.9395 81.8811 88.6207C82.6838 89.2888 83.5541 90.0103 84.4083 90.7163C84.6418 90.9092 84.8741 91.1015 85.1027 91.2907C85.1553 91.3348 85.2086 91.3794 85.2612 91.4223C88.6972 94.2635 93.7523 94.1239 96.933 90.9992C98.2201 89.7342 99.0588 88.13 98.7435 86.1479C97.7568 79.9412 103.486 82.8712 106.484 79.636C109.94 75.9107 107.08 71.9627 109.935 69.4725C113.906 66.0097 114.505 58.9772 108.784 59.9072Z" fill="#3629B7"/>
<path d="M105.484 66.7348L84.4072 90.7168C84.6407 90.9097 84.873 91.102 85.1016 91.2912L106.159 67.3309C106.324 67.1442 106.306 66.8588 106.119 66.6945C105.933 66.5301 105.648 66.548 105.484 66.7348Z" fill="#5655B9"/>
<path d="M87.9417 52.4328C83.4608 56.114 85.77 61.17 81.566 62.8109C77.3632 64.4517 75.3049 68.3966 77.5757 71.6721C79.8477 74.9483 81.7022 77.2319 78.2552 80.6141C74.8075 83.9951 74.9357 90.097 79.0703 90.793C80.0992 90.9673 81.2135 91.1534 82.3062 91.3346C82.6047 91.3836 82.9021 91.4338 83.195 91.4822C83.2626 91.494 83.3307 91.5058 83.3982 91.5163C87.7936 92.2459 92.0961 89.5827 93.2798 85.2811C93.7586 83.5397 93.68 81.7307 92.4132 80.1755C88.4483 75.3038 94.8717 74.957 95.8436 70.651C96.9641 65.6912 92.5111 63.716 93.7326 60.1266C95.4304 55.1345 92.4232 48.7516 87.9417 52.4328Z" fill="#0890FE"/>
<path d="M88.5105 59.9959L82.3064 91.3342C82.605 91.3832 82.9023 91.4334 83.1953 91.4818L89.3938 60.1714C89.4421 59.927 89.2842 59.6894 89.0401 59.641C88.7961 59.5926 88.5588 59.7514 88.5105 59.9959Z" fill="#3629B7"/>
<path d="M35.1098 138.918C40.2021 141.691 38.8821 147.091 43.319 147.912C47.7547 148.732 50.5167 152.22 48.9006 155.864C47.2839 159.509 45.8908 162.101 49.9109 164.774C53.9315 167.446 54.9505 173.464 51.0203 174.925C50.0422 175.29 48.983 175.683 47.9436 176.066C47.6599 176.171 47.3768 176.276 47.0981 176.378C47.0337 176.403 46.9693 176.427 46.9048 176.45C42.7244 177.994 37.9994 176.188 36.0291 172.185C35.2319 170.565 34.9699 168.774 35.9219 167.008C38.9019 161.477 32.5281 162.345 30.7658 158.298C28.7348 153.638 32.7375 150.86 30.8643 147.564C28.2615 142.982 30.0176 136.146 35.1098 138.918Z" fill="#3629B7"/>
<path d="M35.9706 146.455L47.9446 176.067C47.6609 176.172 47.3778 176.277 47.0991 176.379L35.1362 146.793C35.0427 146.562 35.1536 146.299 35.384 146.206C35.6144 146.113 35.877 146.224 35.9706 146.455Z" fill="#5655B9"/>
<path d="M20.7529 150.596C26.498 151.362 27.1942 156.877 31.6305 156.055C36.0655 155.233 39.8905 157.5 39.683 161.482C39.4742 165.466 39.0989 168.385 43.8077 169.441C48.5165 170.497 51.6167 175.751 48.4682 178.524C47.6853 179.215 46.836 179.962 46.0023 180.692C45.7743 180.891 45.5476 181.09 45.3246 181.286C45.2732 181.332 45.2218 181.377 45.1698 181.422C41.8169 184.361 36.7599 184.367 33.4906 181.334C32.1675 180.107 31.283 178.528 31.5419 176.538C32.3503 170.305 26.708 173.399 23.6171 170.251C20.056 166.626 22.8025 162.598 19.8764 160.191C15.808 156.843 15.0077 149.831 20.7529 150.596Z" fill="#0890FE"/>
<path d="M24.2465 157.326L46.0018 180.692C45.7738 180.891 45.5471 181.09 45.3241 181.286L23.5887 157.941C23.4189 157.759 23.4288 157.473 23.6103 157.304C23.7918 157.134 24.0768 157.144 24.2465 157.326Z" fill="#1C47C1"/>
<path d="M44.0029 90.1164C40.4493 83.0076 37.1564 75.371 35.5695 70.0569C33.4969 63.1144 33.1661 57.8141 34.5871 54.304C34.6812 54.0714 34.9457 53.9591 35.1786 54.0534C35.4109 54.1477 35.523 54.4126 35.4289 54.6459C32.9456 60.7819 36.2706 73.0601 45.046 90.1803L44.0029 90.1164Z" fill="#1C47C1"/>
<path d="M34.2369 63.7132C34.2369 63.7132 30.7353 65.1779 28.405 58.9116C28.405 58.9116 34.3998 58.192 34.2369 63.7132Z" fill="#0172D0"/>
<path d="M35.2715 67.005C35.2715 67.005 33.617 63.585 39.7338 60.9062C39.7338 60.9069 40.785 66.8611 35.2715 67.005Z" fill="#0172D0"/>
<path d="M34.328 57.2396C34.328 57.2396 31.6291 54.5677 36.5052 50C36.5052 50 39.4778 55.2625 34.328 57.2396Z" fill="#0172D0"/>
<path d="M37.1483 73.6941C37.1483 73.6941 34.3479 76.2587 30.0386 71.1512C30.0386 71.1512 35.4368 68.4433 37.1483 73.6941Z" fill="#0172D0"/>
<path d="M38.7096 76.8893C38.7096 76.8893 36.489 73.8074 42.052 70.1094C42.0514 70.1094 44.1147 75.7919 38.7096 76.8893Z" fill="#0172D0"/>
<path d="M40.4131 81.4758C40.4131 81.4758 37.6617 84.0925 33.2563 79.0682C33.2563 79.0676 38.6026 76.2586 40.4131 81.4758Z" fill="#0172D0"/>
<path d="M97.6297 80.0019V178.678C97.6297 181.771 95.1266 184.278 92.0382 184.278H42.9746C41.4229 184.278 40.0199 183.645 39.0066 182.624C38.0031 181.611 37.3831 180.217 37.3831 178.678V80.0019C37.3831 76.9087 39.8861 74.4019 42.9746 74.4019H92.0382C92.9512 74.4019 93.8128 74.6208 94.5747 75.0098C96.3884 75.9354 97.6297 77.8232 97.6297 80.0019Z" fill="#5655B9"/>
<path d="M97.6302 80.0018V178.678C97.6302 181.771 95.1272 184.278 92.0387 184.278H42.9751C41.4234 184.278 40.0205 183.645 39.0071 182.624L94.5753 75.0098C96.3889 75.9353 97.6302 77.8231 97.6302 80.0018Z" fill="#5655B9"/>
<path d="M37.3839 105.189H36.3923C35.81 105.189 35.3386 104.716 35.3386 104.133V93.2081C35.3386 92.6249 35.8106 92.1528 36.3923 92.1528H37.3839V105.189Z" fill="#5655B9"/>
<path d="M97.6304 101.778H98.4418C98.9181 101.778 99.304 101.392 99.304 100.915V92.0266C99.304 91.5496 98.9181 91.1631 98.4418 91.1631H97.6304V101.778Z" fill="#343434"/>
<path d="M37.3839 119.994H36.3923C35.81 119.994 35.3386 119.521 35.3386 118.939V108.013C35.3386 107.43 35.8106 106.958 36.3923 106.958H37.3839V119.994Z" fill="#5655B9"/>
<path d="M40.1726 175.752V82.928C40.1726 79.7622 42.7352 77.1958 45.8961 77.1958H89.118C92.2789 77.1958 94.8414 79.7622 94.8414 82.928V175.753C94.8414 178.919 92.2788 181.485 89.1186 181.485H45.8954C42.7345 181.485 40.1726 178.918 40.1726 175.752Z" fill="white"/>
<path opacity="0.6" d="M85.5956 90.7641H49.4177C48.8701 90.7641 48.426 90.3193 48.426 89.7709V87.9024C48.426 87.354 48.8701 86.9092 49.4177 86.9092H85.5956C86.1431 86.9092 86.5873 87.354 86.5873 87.9024V89.7709C86.5873 90.3199 86.1431 90.7641 85.5956 90.7641Z" fill="#D1E3F1"/>
<path opacity="0.6" d="M61.1001 99.8463H44.4266C44.0289 99.8463 43.7068 99.5237 43.7068 99.1255V97.7687C43.7068 97.3704 44.0289 97.0479 44.4266 97.0479H61.1001C61.4978 97.0479 61.8199 97.3704 61.8199 97.7687V99.1255C61.8199 99.5237 61.4978 99.8463 61.1001 99.8463Z" fill="#D1E3F1"/>
<path opacity="0.6" d="M61.1001 105.217H44.4266C44.0289 105.217 43.7068 104.894 43.7068 104.496V103.139C43.7068 102.741 44.0289 102.418 44.4266 102.418H61.1001C61.4978 102.418 61.8199 102.741 61.8199 103.139V104.496C61.8199 104.894 61.4978 105.217 61.1001 105.217Z" fill="#D1E3F1"/>
<path opacity="0.6" d="M61.1001 110.133H44.4266C44.0289 110.133 43.7068 109.811 43.7068 109.413V108.056C43.7068 107.658 44.0289 107.335 44.4266 107.335H61.1001C61.4978 107.335 61.8199 107.658 61.8199 108.056V109.413C61.8199 109.81 61.4978 110.133 61.1001 110.133Z" fill="#D1E3F1"/>
<path d="M72.557 129.951H61.8193V176.03H72.557V129.951Z" fill="#FFAF2A"/>
<path d="M61.8193 163.877C65.6238 162.7 69.1904 160.59 72.557 158.322V176.031H61.8193V163.877Z" fill="#FB6B18"/>
<path d="M55.0065 142.755H44.2688V176.03H55.0065V142.755Z" fill="#FFAF2A"/>
<path d="M53.0194 164.657C53.6889 164.754 54.3511 164.814 55.0071 164.839V176.03H44.2688V164.944C46.1692 164.318 48.9491 164.061 53.0194 164.657Z" fill="#FB6B18"/>
<path d="M90.1073 116.184H79.3696V176.03H90.1073V116.184Z" fill="#FFAF2A"/>
<path d="M90.1078 148.983V176.03H79.3701V153.575C83.1864 150.979 86.7431 148.969 90.1078 148.983Z" fill="#FB6B18"/>
<path d="M89.7057 98.4473L79.9337 100.546L82.5582 103.124L67.5967 118.399L62.3465 113.242L42.4978 133.508L45.113 136.077L62.3967 118.43L67.6469 123.588L85.1734 105.693L87.7972 108.271L89.7057 98.4473Z" fill="#3629B7"/>
<path d="M192.054 129.97C191.655 129.943 191.25 129.94 190.844 129.974C190.033 130.044 189.215 130.247 188.452 130.601C187.688 130.955 186.987 131.464 186.395 132.076C186.232 132.244 186.079 132.422 185.935 132.605C185.773 132.539 185.61 132.478 185.446 132.417C185.037 132.28 184.625 132.149 184.192 132.06C183.979 132.007 183.758 131.978 183.539 131.94C183.317 131.915 183.095 131.885 182.869 131.876C182.75 131.868 182.63 131.864 182.51 131.864C181.72 131.855 180.905 131.984 180.136 132.275C179.694 132.443 179.271 132.665 178.877 132.939C178.68 133.075 178.493 133.226 178.312 133.391C178.222 133.472 178.134 133.56 178.047 133.651C178.003 133.699 177.961 133.744 177.916 133.797C177.894 133.823 177.873 133.848 177.848 133.877L177.812 133.922L177.764 133.986L179.451 135.2L179.456 135.193L179.484 135.162C179.504 135.14 179.529 135.114 179.552 135.09C179.6 135.042 179.652 134.991 179.707 134.944C179.818 134.848 179.936 134.755 180.063 134.67C180.316 134.503 180.592 134.365 180.879 134.255C181.458 134.04 182.096 133.959 182.753 133.997C182.882 134 183.013 134.015 183.143 134.03C183.179 134.034 183.213 134.038 183.249 134.041C183.415 134.071 183.581 134.09 183.748 134.131C184.082 134.196 184.416 134.301 184.748 134.41C184.778 134.422 184.808 134.432 184.838 134.444C184.536 135.132 184.322 135.858 184.195 136.603C184.053 137.443 184.023 138.31 184.147 139.187C184.213 139.625 184.314 140.067 184.49 140.504C184.576 140.723 184.679 140.939 184.807 141.153C184.935 141.365 185.082 141.574 185.266 141.769C185.448 141.963 185.662 142.145 185.908 142.292C185.971 142.327 186.031 142.365 186.098 142.396C186.163 142.426 186.231 142.459 186.295 142.485C186.413 142.527 186.532 142.568 186.652 142.607C187.137 142.751 187.688 142.805 188.233 142.7C188.779 142.599 189.298 142.34 189.707 141.985C190.12 141.63 190.427 141.19 190.639 140.728C191.062 139.796 191.12 138.781 190.949 137.841C190.862 137.369 190.703 136.918 190.506 136.491L190.348 136.175C190.293 136.072 190.229 135.974 190.171 135.875L190.079 135.725L189.98 135.584L189.777 135.301C189.241 134.629 188.597 134.071 187.908 133.62C187.859 133.587 187.809 133.555 187.76 133.525C187.714 133.496 187.669 133.464 187.621 133.437L187.479 133.355L187.192 133.196C187.179 133.188 187.166 133.181 187.154 133.174C187.645 132.523 188.247 131.956 188.945 131.507C189.555 131.113 190.237 130.812 190.96 130.59C191.323 130.484 191.694 130.394 192.074 130.322C192.265 130.287 192.457 130.25 192.651 130.227C192.845 130.194 193.039 130.178 193.236 130.149C192.849 130.062 192.454 130.002 192.054 129.97ZM186.219 135.046L186.447 135.168L186.561 135.229C186.598 135.25 186.632 135.275 186.669 135.297C186.795 135.373 186.918 135.453 187.038 135.538C187.472 135.839 187.858 136.187 188.18 136.576L188.324 136.767L188.397 136.862L188.46 136.961C188.502 137.028 188.548 137.093 188.587 137.161L188.697 137.368C188.833 137.647 188.947 137.936 189.009 138.233C189.135 138.823 189.105 139.441 188.89 139.947C188.782 140.197 188.638 140.419 188.463 140.581C188.288 140.746 188.088 140.854 187.868 140.906C187.646 140.959 187.397 140.953 187.131 140.888C187.065 140.867 186.998 140.847 186.93 140.829C186.881 140.809 186.837 140.792 186.791 140.767C186.699 140.718 186.608 140.65 186.518 140.564C186.429 140.479 186.345 140.37 186.266 140.25C186.186 140.131 186.115 139.997 186.053 139.854C185.926 139.568 185.833 139.247 185.765 138.916C185.635 138.247 185.619 137.53 185.705 136.824C185.778 136.206 185.925 135.592 186.144 135.007C186.171 135.02 186.196 135.033 186.219 135.046Z" fill="#3629B7"/>
<path d="M183.143 134.032C183.012 134.017 182.882 134.001 182.753 133.998C182.096 133.96 181.457 134.041 180.879 134.257C180.591 134.367 180.315 134.504 180.063 134.672C179.937 134.756 179.818 134.849 179.707 134.945C179.652 134.993 179.6 135.043 179.551 135.092C179.529 135.115 179.504 135.141 179.484 135.163L179.456 135.195L179.446 135.207C179.446 135.206 179.448 135.203 179.45 135.2L177.763 133.986L177.812 133.923L177.847 133.878C177.871 133.849 177.893 133.823 177.915 133.798C177.96 133.746 178.002 133.7 178.046 133.652C178.133 133.561 178.221 133.473 178.311 133.391C178.492 133.227 178.679 133.076 178.876 132.94C179.27 132.666 179.693 132.443 180.135 132.276C180.904 131.985 181.719 131.856 182.509 131.865C182.732 132.473 182.982 133.25 183.143 134.032Z" fill="#5655B9"/>
<path d="M187.907 133.621C187.348 134.211 187.127 134.992 187.038 135.538C186.918 135.453 186.794 135.373 186.669 135.297C186.633 135.275 186.598 135.251 186.561 135.229L186.447 135.168L186.22 135.046C186.196 135.033 186.171 135.02 186.145 135.007C186.49 133.969 187.153 133.175 187.153 133.175C187.165 133.182 187.178 133.188 187.191 133.197L187.478 133.356L187.62 133.437C187.668 133.465 187.713 133.497 187.759 133.525C187.808 133.557 187.857 133.589 187.907 133.621Z" fill="#5655B9"/>
<path d="M115.609 170.101L113.937 179.266L112.84 185.278C107.324 187.477 102.149 183.855 102.149 183.855V165.518L115.609 170.101Z" fill="#5655B9"/>
<path d="M102.149 165.516L115.61 170.099L113.938 179.265C109.347 177.762 105.234 175.342 102.15 173.186V165.516H102.149Z" fill="#3629B7"/>
<path d="M161.773 165.516V183.853C161.773 183.853 156.597 187.475 151.081 185.276L150 179.35L148.312 170.099L161.773 165.516Z" fill="#5655B9"/>
<path d="M161.773 165.516V174.029C158.486 176.538 154.41 178.236 150 179.35L148.312 170.099L161.773 165.516Z" fill="#3629B7"/>
<path d="M181.082 136.317C181.082 139.468 180.673 142.535 179.898 145.481C179.898 145.481 179.898 145.483 179.896 145.486C175.113 163.679 156.404 177.251 134.05 177.251C112.398 177.251 94.1627 164.515 88.6957 147.18C88.1487 145.45 87.73 143.674 87.4469 141.861C87.1645 140.048 87.0195 138.197 87.0195 136.317C87.0195 113.709 108.077 95.3809 134.05 95.3809C141.359 95.3809 148.28 96.8325 154.45 99.4219C154.45 99.4219 154.452 99.4238 154.453 99.4238C170.21 106.038 181.082 120.072 181.082 136.317Z" fill="#3629B7"/>
<path d="M179.896 145.486C175.112 163.679 156.404 177.251 134.05 177.251C112.398 177.251 94.1622 164.515 88.6952 147.18L88.6946 142.755C88.6946 142.755 103.4 170.614 134.88 171.979C166.118 173.333 179.69 145.932 179.896 145.486Z" fill="#5655B9"/>
<path d="M88.6949 125.741V147.18H79.3912C77.2957 139.971 77.258 132.823 79.3912 125.741H88.6949Z" fill="#3629B7"/>
<path d="M79.3912 147.18C77.2957 139.971 77.258 132.823 79.3912 125.741C79.3912 125.741 82.7398 136.317 79.3912 147.18Z" fill="#5655B9"/>
<path d="M79.7023 136.506C79.7023 138.476 79.5408 140.074 79.3422 140.074C79.143 140.074 78.9822 138.476 78.9822 136.506C78.9822 134.536 79.1436 132.938 79.3422 132.938C79.5408 132.939 79.7023 134.536 79.7023 136.506Z" fill="#0036AC"/>
<path d="M136.463 149.495L136.466 153.954L130.809 153.959L130.806 149.7C126.794 149.463 122.9 148.382 120.492 146.897L123.535 139.983C126.184 141.548 129.715 142.549 132.805 142.546C135.493 142.544 136.455 141.981 136.455 141.016C136.452 137.48 120.928 140.347 120.918 129.859C120.914 125.319 124.201 121.499 130.78 120.569L130.776 116.189L136.433 116.184L136.437 120.483C139.406 120.762 142.295 121.523 144.583 122.806L141.741 129.68C138.971 128.276 136.363 127.596 133.916 127.598C131.147 127.6 130.265 128.405 130.266 129.369C130.269 132.744 145.793 129.917 145.802 140.284C145.807 144.624 142.68 148.405 136.463 149.495Z" fill="#5655B9"/>
<path d="M113.21 99.9403C113.21 99.9403 110.775 103.796 105.903 105.719C104.673 106.205 103.287 106.568 101.745 106.714L97.5186 91.4668C97.6641 91.5177 108.678 95.3335 113.21 99.9403Z" fill="#3629B7"/>
<path d="M105.903 105.719C104.673 106.205 103.287 106.568 101.745 106.714L97.5186 91.4668C97.5186 91.4668 97.5186 91.4668 97.5198 91.4674C97.6288 91.5692 104.679 98.9161 105.903 105.719Z" fill="#5655B9"/>
<path d="M150.068 99.4953L149.863 100.562L149.51 102.417C134.215 97.9853 118.682 101.825 118.527 101.864L118.216 100.005L118.034 98.9245C118.689 98.7583 134.234 94.9095 150.068 99.4953Z" fill="#0036AC"/>
<path d="M149.864 100.562L149.51 102.418C148.796 102.211 148.081 102.022 147.367 101.85C146.152 101.558 144.941 101.312 143.742 101.113C142.01 100.821 140.302 100.618 138.637 100.487C138.547 100.48 138.458 100.473 138.369 100.466C137.623 100.41 136.887 100.369 136.163 100.338C136.136 100.338 136.11 100.337 136.083 100.337C135.247 100.302 134.425 100.287 133.625 100.284H133.319C133.269 100.284 133.219 100.284 133.17 100.286C131.221 100.291 129.39 100.379 127.727 100.511C127.666 100.514 127.606 100.52 127.547 100.526C127.007 100.569 126.488 100.617 125.986 100.668C125.949 100.673 125.913 100.676 125.876 100.68C125.274 100.743 124.704 100.809 124.164 100.879C122.662 101.072 121.41 101.28 120.47 101.458C119.254 101.685 118.56 101.855 118.528 101.864L118.25 100.211C118.489 100.153 118.93 100.047 119.552 99.9153H119.554C119.627 99.8998 119.704 99.883 119.782 99.8657C120.597 99.6969 121.681 99.4904 122.985 99.2875C124.336 99.0797 125.925 98.8731 127.697 98.7192C127.733 98.7155 127.767 98.7124 127.802 98.7087H127.804C127.971 98.695 128.141 98.6795 128.313 98.6678C128.649 98.6405 128.992 98.615 129.342 98.5927C129.398 98.5896 129.454 98.5859 129.51 98.5828C129.555 98.579 129.599 98.5778 129.645 98.5741C131.276 98.4748 133.032 98.4258 134.877 98.4543C135.023 98.4562 135.172 98.4581 135.32 98.4612C136.003 98.4767 136.698 98.5021 137.403 98.5393C137.829 98.5617 138.258 98.589 138.691 98.6212C139.113 98.6516 139.537 98.6876 139.967 98.7304C140.058 98.7372 140.153 98.7472 140.246 98.7577C141.81 98.9109 143.413 99.133 145.034 99.4333C146.155 99.6399 147.286 99.8855 148.422 100.173C148.901 100.296 149.382 100.423 149.864 100.562Z" fill="#1C47C1"/>
<path d="M148.422 100.175C148.41 100.197 148.396 100.221 148.383 100.243C148.078 100.799 147.737 101.335 147.367 101.85C146.153 101.558 144.942 101.313 143.743 101.113C142.011 100.821 140.302 100.618 138.638 100.487C138.548 100.48 138.459 100.473 138.369 100.466C137.623 100.41 136.887 100.369 136.163 100.339C136.136 100.339 136.111 100.337 136.083 100.337C135.247 100.303 134.426 100.287 133.626 100.284H133.319C133.269 100.284 133.22 100.284 133.171 100.286C131.221 100.291 129.39 100.38 127.727 100.511C127.666 100.514 127.607 100.52 127.547 100.527C127.007 100.569 126.488 100.617 125.987 100.668C125.949 100.673 125.914 100.677 125.876 100.68C125.275 100.743 124.704 100.809 124.165 100.88C122.662 101.073 121.411 101.28 120.47 101.458C120.164 101.001 119.881 100.53 119.619 100.042V100.04C119.598 100.002 119.578 99.9652 119.559 99.9261C119.557 99.923 119.556 99.9193 119.554 99.9162H119.552C119.551 99.9143 119.551 99.9125 119.549 99.9112C119.493 99.8039 119.438 99.6959 119.384 99.5868C119.367 99.5526 119.35 99.5185 119.333 99.4844C119.275 99.3647 119.219 99.2437 119.165 99.1227C118.297 97.2226 117.781 95.1208 117.702 92.903C117.695 92.7001 117.692 92.4972 117.693 92.2938C117.697 83.5169 124.642 76.2518 133.472 75.9348C135.646 75.8578 137.734 76.2077 139.658 76.9106C139.772 76.9534 139.886 76.9962 139.999 77.0403C140.019 77.0471 140.04 77.0558 140.058 77.0638C140.167 77.1066 140.276 77.1507 140.383 77.1972C140.449 77.2226 140.51 77.2499 140.572 77.2772C140.577 77.2791 140.583 77.2822 140.588 77.2841C140.642 77.3064 140.699 77.33 140.753 77.356C142.322 78.062 143.761 79.0074 145.022 80.1483C145.301 80.3989 145.57 80.6601 145.831 80.9293C146.757 81.8896 147.568 82.9629 148.239 84.1279C148.932 85.3308 149.477 86.6305 149.85 88.0039C150.123 89.0071 150.302 90.0493 150.378 91.1225C150.395 91.3254 150.405 91.5289 150.414 91.7317C150.522 94.7858 149.789 97.6754 148.422 100.175Z" fill="#FFAF2A"/>
<path opacity="0.5" d="M149.849 88.0042L147.073 91.0185L146.964 91.1383L139.967 98.7328L138.369 100.467C137.624 100.411 136.888 100.37 136.164 100.339C136.136 100.339 136.111 100.338 136.084 100.338C135.247 100.304 134.426 100.288 133.626 100.285H133.319C133.27 100.285 133.22 100.285 133.171 100.287L133.314 100.134L133.391 100.052L134.878 98.4567L139.925 93.044L140.112 92.8424L145.49 87.0767L145.862 86.676L148.239 84.1294C148.931 85.331 149.476 86.6307 149.849 88.0042Z" fill="white"/>
<path opacity="0.5" d="M140.752 77.3567L119.616 100.042C119.455 99.7413 119.304 99.4354 119.162 99.124L139.656 76.9106C140.028 77.0465 140.393 77.1948 140.752 77.3567Z" fill="white"/>
<path opacity="0.5" d="M145.829 80.9285L143.587 83.3529L143.031 83.9553L138.963 88.3567L138.335 89.0373L138.207 89.1756L137.757 89.6601L136.896 90.5931L136.364 91.1682L133.884 93.8513L133.322 94.4586L132.362 95.4977L131.823 96.0809L129.546 98.5443L129.51 98.5834L129.074 99.0524L127.727 100.511C127.666 100.514 127.606 100.52 127.547 100.526C127.007 100.569 126.488 100.617 125.987 100.668L127.802 98.7094H127.804L128.397 98.0698L128.669 97.7763L130.602 95.6919L131.078 95.1801L131.996 94.1906L132.534 93.6087L135.021 90.9288L135.586 90.3196L136.557 89.2705L137.063 88.7265L139.272 86.3449L139.384 86.2239L142.174 83.2164L142.78 82.5632L145.02 80.1475C145.299 80.3981 145.568 80.6593 145.829 80.9285Z" fill="white"/>
<path d="M147.138 92.4489C147.112 95.011 146.345 97.4112 145.034 99.4342C144.649 100.028 144.216 100.589 143.743 101.113C142.011 100.821 140.303 100.618 138.639 100.487C138.548 100.48 138.46 100.473 138.37 100.466C137.624 100.41 136.888 100.369 136.164 100.339C136.137 100.339 136.111 100.337 136.084 100.337C135.248 100.303 134.427 100.287 133.626 100.284H133.32C133.27 100.284 133.22 100.284 133.172 100.286C131.222 100.291 129.391 100.38 127.728 100.511C127.667 100.514 127.607 100.52 127.548 100.527C127.008 100.569 126.489 100.617 125.988 100.668C125.95 100.673 125.914 100.677 125.877 100.68C125.275 100.743 124.705 100.81 124.165 100.88C124.085 100.789 124.008 100.697 123.934 100.605C123.881 100.542 123.829 100.477 123.779 100.412C123.776 100.408 123.772 100.405 123.77 100.4C123.714 100.328 123.657 100.257 123.603 100.184C123.593 100.172 123.585 100.16 123.576 100.148C123.523 100.077 123.472 100.006 123.421 99.9342C123.314 99.7859 123.21 99.6358 123.112 99.4819C123.069 99.4168 123.028 99.3523 122.987 99.2871C122.97 99.2636 122.955 99.2375 122.939 99.2121C122.903 99.1544 122.868 99.0942 122.833 99.0365C122.583 98.6221 122.358 98.1922 122.156 97.7505C122.118 97.6668 122.081 97.583 122.045 97.4999C122.038 97.4862 122.033 97.4707 122.026 97.4571C121.997 97.3888 121.969 97.3187 121.941 97.2505C121.923 97.2064 121.904 97.1618 121.887 97.1159C121.855 97.0358 121.824 96.954 121.793 96.8721C121.758 96.7803 121.725 96.686 121.693 96.5941C121.676 96.5427 121.659 96.4918 121.64 96.4403C121.634 96.4217 121.629 96.4024 121.623 96.3838C121.618 96.3652 121.611 96.3479 121.606 96.3292C121.57 96.217 121.535 96.1041 121.502 95.9899C121.499 95.9812 121.497 95.9732 121.494 95.9645C121.46 95.8503 121.429 95.7343 121.398 95.6164C121.38 95.5451 121.36 95.4713 121.344 95.3981C121.306 95.248 121.272 95.096 121.242 94.9427C121.23 94.8881 121.219 94.8317 121.209 94.7752C121.194 94.7033 121.182 94.6319 121.168 94.5587C121.162 94.5178 121.155 94.4768 121.15 94.4359C121.138 94.3714 121.128 94.3081 121.12 94.243C121.111 94.1921 121.104 94.1387 121.097 94.086C121.082 93.9806 121.068 93.8726 121.058 93.7653C121.043 93.6393 121.031 93.5128 121.02 93.385C121.005 93.1871 120.993 92.9855 120.986 92.7845C120.727 85.5653 126.382 79.482 133.59 79.2227C134.829 79.1787 136.035 79.3096 137.182 79.5931C137.578 79.6905 137.966 79.8065 138.346 79.9392H138.347C139.999 80.5143 141.502 81.4132 142.782 82.5628C143.064 82.8152 143.333 83.0777 143.59 83.3525C144.508 84.3302 145.278 85.4493 145.863 86.6739C146.502 88.0095 146.923 89.4717 147.074 91.0171C147.102 91.2919 147.12 91.568 147.131 91.8477C147.136 92.0494 147.138 92.2491 147.138 92.4489Z" fill="#FA8A00"/>
<path d="M147.138 92.4496C147.113 95.0117 146.346 97.4119 145.035 99.4349C144.65 100.029 144.217 100.59 143.744 101.114C142.012 100.822 140.303 100.619 138.639 100.488C138.549 100.481 138.46 100.474 138.37 100.467C137.624 100.411 136.889 100.37 136.164 100.339C136.137 100.339 136.112 100.338 136.085 100.338C135.248 100.303 134.427 100.288 133.627 100.285H133.32C133.271 100.285 133.221 100.285 133.172 100.287C131.222 100.292 129.391 100.38 127.729 100.512C127.667 100.515 127.608 100.521 127.548 100.527C127.008 100.57 126.489 100.618 125.988 100.669C125.95 100.674 125.915 100.677 125.877 100.681C125.276 100.744 124.705 100.81 124.166 100.88C124.086 100.79 124.009 100.698 123.934 100.606C123.881 100.542 123.83 100.478 123.779 100.413C123.776 100.409 123.772 100.406 123.77 100.401C123.714 100.329 123.658 100.257 123.604 100.184C123.593 100.172 123.585 100.161 123.577 100.148C123.524 100.078 123.473 100.007 123.422 99.9349C123.315 99.7866 123.211 99.6365 123.112 99.4827C123.069 99.4175 123.028 99.353 122.988 99.2879C122.971 99.2643 122.955 99.2382 122.94 99.2128C122.904 99.1551 122.869 99.0949 122.834 99.0372C122.584 98.6228 122.359 98.1929 122.156 97.7512C122.118 97.6675 122.081 97.5837 122.045 97.5006C122.039 97.4869 122.034 97.4714 122.027 97.4578C121.998 97.3895 121.969 97.3194 121.942 97.2512C121.923 97.2072 121.904 97.1625 121.887 97.1166C121.855 97.0366 121.824 96.9547 121.794 96.8728C121.758 96.781 121.726 96.6867 121.694 96.5949C121.677 96.5421 121.658 96.4906 121.643 96.4379C121.636 96.4212 121.631 96.4019 121.624 96.3852C121.619 96.3666 121.612 96.3492 121.607 96.3306C121.572 96.2183 121.536 96.1054 121.503 95.9912C121.5 95.9826 121.498 95.9745 121.495 95.9658C121.461 95.8517 121.43 95.7357 121.399 95.6178C121.381 95.5464 121.362 95.4726 121.345 95.3994C121.307 95.2493 121.273 95.0973 121.243 94.9441C121.231 94.8895 121.22 94.833 121.21 94.7766C121.195 94.7046 121.183 94.6333 121.17 94.5601C121.163 94.5191 121.156 94.4782 121.151 94.4372C121.139 94.3727 121.129 94.3094 121.121 94.2443C121.112 94.1934 121.105 94.1401 121.098 94.0874C121.083 93.9819 121.069 93.8739 121.059 93.7666C121.044 93.6407 121.032 93.5141 121.021 93.3863C121.09 86.4333 126.627 80.6757 133.634 80.4251C134.522 80.3928 135.39 80.4524 136.237 80.5907C136.246 80.5926 136.252 80.5944 136.26 80.5957C136.36 80.6124 136.458 80.6298 136.557 80.6484C136.664 80.6689 136.771 80.6912 136.877 80.7148C137.084 80.7576 137.286 80.8066 137.489 80.8612H137.491C137.497 80.8631 137.501 80.8649 137.507 80.8662C139.211 81.3265 140.779 82.1249 142.139 83.1863C142.152 83.1969 142.164 83.2068 142.178 83.2167C142.457 83.4382 142.728 83.6702 142.99 83.9128C143.006 83.9264 143.02 83.9401 143.035 83.9556C144.003 84.8613 144.834 85.9122 145.493 87.0754C145.546 87.1672 145.597 87.2615 145.646 87.3552C146.269 88.5221 146.721 89.7913 146.968 91.1369C146.988 91.2479 147.007 91.3584 147.024 91.4694C147.073 91.7926 147.112 92.1202 147.138 92.4496Z" fill="#FB6B18"/>
<path opacity="0.5" d="M147.019 91.4697L140.245 98.759L138.637 100.487C138.547 100.481 138.458 100.474 138.368 100.467C137.622 100.41 136.887 100.369 136.163 100.339C136.135 100.339 136.11 100.337 136.083 100.337C135.246 100.303 134.425 100.288 133.625 100.284L135.319 98.4625L140.097 93.3209L140.236 93.1708L145.641 87.3555C146.264 88.5224 146.716 89.7916 146.963 91.1372C146.983 91.2483 147.002 91.3593 147.019 91.4697Z" fill="#FFCE4F"/>
<path opacity="0.5" d="M137.504 80.8674L122.043 97.5C121.877 97.1197 121.73 96.7282 121.603 96.3306L136.232 80.5913C136.662 80.6614 137.088 80.7545 137.504 80.8674Z" fill="#FFCE4F"/>
<path opacity="0.5" d="M142.986 83.9125L139.035 88.1651L138.408 88.837L138.128 89.1391L137.676 89.6267L136.8 90.5684L136.262 91.1466L133.768 93.8297L133.205 94.437L132.241 95.4742L131.706 96.0493L129.427 98.5022L129.343 98.5928L128.959 99.0041L127.547 100.526C127.007 100.569 126.488 100.616 125.987 100.667C125.949 100.672 125.914 100.676 125.876 100.679L127.697 98.7187L128.333 98.0345L128.742 97.5959L130.537 95.6628L131.01 95.1548L131.925 94.1702L132.461 93.5933L134.95 90.9152L135.517 90.306L136.495 89.2532L137.004 88.7055L139.222 86.3189L139.435 86.0906L142.136 83.1836C142.15 83.1941 142.161 83.2041 142.175 83.214C142.454 83.4379 142.724 83.67 142.986 83.9125Z" fill="#FFCE4F"/>
<path d="M140.538 95.0294C140.526 94.7136 140.487 94.4239 140.422 94.1578V94.1559C140.346 93.847 140.237 93.5709 140.097 93.3215C140.046 93.2241 139.988 93.1323 139.923 93.0436C139.143 91.9214 137.729 91.4487 136.363 91.1689C136.329 91.162 136.295 91.1552 136.261 91.1484C135.834 91.0634 135.413 90.9952 135.019 90.93C134.996 90.9263 134.971 90.9232 134.948 90.9182C133.732 90.7203 132.795 90.5466 132.774 89.9697C132.769 89.8487 132.795 89.7309 132.858 89.6235C133.037 89.3127 133.524 89.0795 134.524 89.0454C135.154 89.023 135.811 89.0913 136.493 89.2569C136.513 89.2619 136.534 89.2675 136.556 89.2724C136.922 89.3642 137.295 89.4821 137.675 89.6291C137.702 89.6397 137.73 89.6515 137.757 89.6614C137.961 89.7414 138.168 89.8301 138.377 89.9275L138.963 88.358L139.034 88.1669L139.646 86.5261C139.542 86.4733 139.437 86.4218 139.328 86.3728C139.31 86.3642 139.291 86.3555 139.271 86.3474C139.254 86.3406 139.237 86.3319 139.219 86.3238C138.161 85.8648 136.91 85.6073 135.632 85.5322L135.607 84.8176L135.557 83.436L135.478 83.4398L135.103 83.4534H135.072L133.572 83.508L133.521 83.5099L132.799 83.5353L132.824 84.2586V84.2605L132.826 84.3151V84.317L132.875 85.6712C132.211 85.7891 131.617 85.9665 131.095 86.1929L131.093 86.1948H131.091C131.052 86.2084 131.016 86.2252 130.979 86.2444C129.584 86.8791 128.723 87.8754 128.383 89.0367C128.372 89.0795 128.359 89.1217 128.349 89.1663V89.1682C128.25 89.5534 128.208 89.9561 128.223 90.3711C128.225 90.4207 128.227 90.4685 128.232 90.5162C128.237 90.605 128.243 90.6887 128.254 90.7718V90.7737C128.256 90.7873 128.257 90.801 128.259 90.8146C128.534 92.935 130.203 93.749 131.923 94.1752C131.946 94.182 131.97 94.1888 131.994 94.1938C132.401 94.293 132.81 94.3712 133.203 94.4413C133.242 94.4481 133.281 94.4549 133.321 94.4618C134.433 94.6547 135.397 94.7893 135.795 95.151C135.915 95.2602 135.984 95.3898 135.99 95.5486C136.007 96.0176 135.547 96.3092 134.237 96.357C133.464 96.3843 132.629 96.2856 131.822 96.084C131.783 96.0753 131.744 96.0654 131.704 96.0536C131.326 95.9562 130.955 95.8352 130.6 95.6957C130.578 95.687 130.556 95.6789 130.534 95.6684C130.232 95.5474 129.943 95.4128 129.672 95.2639L128.739 97.6008L128.667 97.7801L128.524 98.138L128.311 98.6722L128.304 98.6889C128.503 98.8018 128.722 98.9091 128.956 99.0078C128.994 99.0245 129.033 99.04 129.072 99.0556C130.224 99.5246 131.746 99.8298 133.301 99.8763C133.329 99.8782 133.354 99.8794 133.381 99.8794L133.388 100.053L133.397 100.287H133.624C134.424 100.291 135.245 100.306 136.081 100.34C136.109 100.34 136.134 100.342 136.161 100.342L136.138 99.6834C137.17 99.465 138.02 99.0984 138.689 98.6256C139.973 97.7174 140.588 96.4209 140.538 95.0294Z" fill="#FA8A00"/>
<path d="M140.422 94.1566V94.1547C140.399 93.7912 140.336 93.4655 140.236 93.1702C140.2 93.0561 140.158 92.9469 140.11 92.8408C139.529 91.5424 138.24 90.9406 136.894 90.5926C136.862 90.5839 136.831 90.5759 136.799 90.569C136.392 90.4685 135.979 90.3885 135.584 90.3203C135.56 90.3166 135.536 90.3116 135.514 90.3085C134.322 90.1056 133.271 89.9878 132.857 89.623C132.739 89.5206 132.673 89.3978 132.668 89.2495C132.651 88.7787 133.066 88.3711 134.417 88.3233C135.236 88.2942 136.096 88.4207 137.001 88.7086C137.021 88.7135 137.04 88.7204 137.06 88.7272C137.409 88.8413 137.764 88.9778 138.126 89.1403C138.151 89.1521 138.177 89.1639 138.205 89.1763C138.227 89.185 138.247 89.1949 138.269 89.2055L138.332 89.038L138.405 88.8382L139.327 86.3717L139.382 86.2246L139.431 86.0931L139.538 85.8046C138.421 85.2265 137.031 84.9076 135.606 84.8152C135.578 84.8133 135.553 84.8114 135.526 84.8102L135.476 83.4367L135.463 83.0614V83.031L135.451 82.7134L134.26 82.7562L134.216 82.758L132.692 82.8126L132.746 84.3393L132.748 84.3958L132.769 84.9485C132.541 84.9895 132.319 85.0373 132.108 85.0919H132.106C132.081 85.0968 132.055 85.1036 132.029 85.1123H132.027C129.483 85.786 128.188 87.4201 128.117 89.319V89.3209C128.115 89.3531 128.115 89.3842 128.115 89.4183C128.113 89.4952 128.113 89.5721 128.117 89.6484C128.129 89.9623 128.166 90.2489 128.231 90.5132C128.248 90.5883 128.267 90.6596 128.289 90.7316V90.7334C128.292 90.7452 128.296 90.7539 128.301 90.7657V90.7676C128.882 92.6218 130.731 93.2459 132.458 93.5958C132.484 93.6008 132.508 93.6063 132.531 93.6094C132.959 93.6944 133.378 93.7645 133.767 93.8309C133.806 93.8377 133.845 93.8446 133.882 93.8514C135.013 94.0511 135.863 94.249 135.884 94.8235C135.889 94.9426 135.861 95.0518 135.795 95.1473C135.611 95.4271 135.107 95.5977 134.13 95.6318C133.56 95.6523 132.959 95.6045 132.36 95.4972C132.319 95.4904 132.278 95.4836 132.239 95.4749C131.846 95.3998 131.456 95.3006 131.076 95.1796C131.054 95.1709 131.03 95.1641 131.008 95.156C130.495 94.9885 130.006 94.7807 129.565 94.54L128.199 97.9638C128.242 97.9874 128.286 98.0115 128.331 98.0351C128.351 98.0469 128.373 98.0587 128.396 98.0692C128.438 98.0916 128.48 98.1133 128.525 98.1338C128.799 98.2684 129.1 98.3912 129.426 98.5023C129.465 98.5159 129.505 98.5295 129.546 98.5432C129.578 98.5531 129.61 98.5637 129.645 98.5736C130.706 98.9111 131.982 99.1245 133.278 99.1555L133.303 99.872L133.313 100.131L133.318 100.283H133.625C134.425 100.287 135.246 100.302 136.083 100.336L136.033 98.9576C136.532 98.8515 136.989 98.7119 137.403 98.5395C139.488 97.6846 140.496 96.0729 140.431 94.3074C140.429 94.2577 140.425 94.2062 140.422 94.1566Z" fill="#FFAF2A"/>
<path d="M193.545 182.081C193.546 182.097 193.546 182.111 193.546 182.127C193.546 182.684 193.249 183.22 192.701 183.72C192.568 183.843 192.419 183.963 192.256 184.08C191.8 184.41 191.233 184.72 190.57 185.008C190.426 185.071 190.278 185.132 190.125 185.192C189.61 185.395 189.046 185.585 188.439 185.76C188.293 185.802 188.144 185.844 187.993 185.884C187.461 186.027 186.898 186.159 186.307 186.279C186.16 186.31 186.012 186.339 185.861 186.367C185.32 186.47 184.757 186.562 184.175 186.645C184.028 186.666 183.88 186.686 183.73 186.705C183.182 186.777 182.62 186.839 182.044 186.892C181.896 186.905 181.748 186.918 181.598 186.931C181.048 186.976 180.485 187.012 179.912 187.039C179.765 187.046 179.616 187.053 179.467 187.058C178.913 187.08 178.351 187.092 177.781 187.095C177.682 187.096 177.582 187.096 177.483 187.096C177.434 187.096 177.384 187.096 177.336 187.095C176.766 187.094 176.203 187.083 175.649 187.063C175.5 187.058 175.352 187.052 175.203 187.046C174.782 187.027 174.365 187.003 173.955 186.975C173.808 186.965 173.662 186.954 173.517 186.943C173.368 186.931 173.22 186.919 173.072 186.906C172.496 186.856 171.934 186.795 171.386 186.725C171.236 186.706 171.088 186.687 170.941 186.666C170.592 186.619 170.25 186.567 169.915 186.511C169.692 186.474 169.472 186.436 169.255 186.396C169.105 186.368 168.956 186.339 168.809 186.31C168.22 186.193 167.656 186.064 167.123 185.925C167.017 185.898 166.913 185.869 166.81 185.841C166.765 185.829 166.721 185.817 166.677 185.804C166.436 185.737 166.201 185.666 165.974 185.594C165.63 185.484 165.302 185.37 164.991 185.251C164.839 185.192 164.69 185.134 164.546 185.073C163.977 184.834 163.475 184.58 163.05 184.311C162.985 184.27 162.921 184.228 162.86 184.186C162.782 184.134 162.708 184.081 162.637 184.028C162.559 183.97 162.486 183.911 162.415 183.852C161.772 183.316 161.42 182.735 161.42 182.128C161.42 182.086 161.422 182.043 161.426 182.001L161.428 178.567L162.415 178.566L162.86 178.565L164.546 178.563L164.992 178.562L166.308 178.56L166.678 178.56L167.124 178.559L168.81 178.556L169.256 178.556L170.942 178.553L171.387 178.553L173.073 178.55L173.519 178.549L175.205 178.546L175.65 178.546L177.337 178.543L177.782 178.543L179.468 178.54L179.914 178.54L181.6 178.537L182.045 178.536L183.731 178.533L184.176 178.533L185.862 178.53L186.308 178.53L187.995 178.527L188.44 178.527H188.55L190.126 178.524L190.571 178.524L192.257 178.52L192.703 178.52L193.541 178.519L193.545 182.081Z" fill="#FFAC00"/>
<path d="M162.86 178.562V184.184C162.782 184.132 162.708 184.079 162.638 184.026C162.56 183.968 162.486 183.909 162.416 183.85V178.563L162.86 178.562Z" fill="#FA8A00"/>
<path d="M164.993 178.56V185.25C164.84 185.191 164.692 185.132 164.548 185.072V178.561L164.993 178.56Z" fill="#FA8A00"/>
<path d="M167.124 178.556V185.923C167.019 185.896 166.915 185.867 166.812 185.839C166.768 185.827 166.724 185.814 166.68 185.802V178.557L167.124 178.556Z" fill="#FA8A00"/>
<path d="M169.256 178.553V186.394C169.106 186.366 168.958 186.337 168.811 186.308V178.553L169.256 178.553Z" fill="#FA8A00"/>
<path d="M171.388 178.549V186.724C171.238 186.705 171.09 186.685 170.943 186.665V178.551L171.388 178.549Z" fill="#FA8A00"/>
<path d="M173.519 178.547V186.942C173.37 186.93 173.222 186.918 173.074 186.905V178.547L173.519 178.547Z" fill="#FA8A00"/>
<path d="M175.649 178.544V187.063C175.5 187.058 175.352 187.052 175.205 187.046V178.545L175.649 178.544Z" fill="#FA8A00"/>
<path d="M177.781 178.54V187.093C177.683 187.094 177.583 187.094 177.484 187.094C177.435 187.094 177.385 187.094 177.336 187.093V178.54H177.781Z" fill="#FA8A00"/>
<path d="M179.913 178.538V187.039C179.766 187.046 179.617 187.053 179.468 187.058V178.539L179.913 178.538Z" fill="#FA8A00"/>
<path d="M182.044 178.534V186.892C181.896 186.905 181.748 186.918 181.599 186.93V178.535L182.044 178.534Z" fill="#FA8A00"/>
<path d="M184.175 178.532V186.645C184.028 186.666 183.88 186.686 183.73 186.706V178.532H184.175Z" fill="#FA8A00"/>
<path d="M186.307 178.527V186.278C186.16 186.309 186.012 186.338 185.862 186.366V178.528L186.307 178.527Z" fill="#FA8A00"/>
<path d="M188.438 178.525V185.76C188.293 185.802 188.145 185.844 187.994 185.884V178.526L188.438 178.525Z" fill="#FA8A00"/>
<path d="M190.57 178.522V185.008C190.426 185.071 190.278 185.131 190.125 185.192V178.522H190.57Z" fill="#FA8A00"/>
<path d="M192.701 178.519V183.72C192.567 183.843 192.419 183.962 192.256 184.08V178.519H192.701Z" fill="#FA8A00"/>
<path d="M193.541 178.56C193.541 181.082 186.353 183.127 177.484 183.127C176.273 183.127 175.092 183.089 173.957 183.017C172.53 182.926 171.175 182.781 169.919 182.59C168.798 182.419 167.757 182.212 166.815 181.974C166.527 181.901 166.249 181.825 165.98 181.747C164.8 181.402 163.809 181.004 163.057 180.568C162.91 180.482 162.772 180.396 162.644 180.308C161.86 179.77 161.428 179.18 161.428 178.561C161.428 178.505 161.432 178.448 161.441 178.392C161.752 175.948 168.816 173.994 177.484 173.994C179.618 173.994 181.653 174.113 183.515 174.327C183.875 174.369 184.228 174.414 184.574 174.463C186.087 174.675 187.464 174.952 188.661 175.283C188.925 175.355 189.18 175.431 189.426 175.508C190.301 175.785 191.058 176.092 191.676 176.423C192.313 176.765 192.803 177.133 193.12 177.518C193.351 177.801 193.491 178.092 193.529 178.392C193.537 178.447 193.541 178.504 193.541 178.56Z" fill="#FFCE4F"/>
<path opacity="0.3" d="M193.12 177.517L173.957 183.017C172.53 182.926 171.175 182.781 169.919 182.59L191.676 176.422C192.313 176.764 192.803 177.131 193.12 177.517Z" fill="white"/>
<path opacity="0.3" d="M184.573 174.46L163.056 180.566C162.909 180.48 162.771 180.394 162.643 180.306L183.514 174.326C183.873 174.367 184.227 174.412 184.573 174.46Z" fill="white"/>
<path opacity="0.3" d="M189.426 175.508L166.815 181.974C166.527 181.902 166.248 181.825 165.98 181.747L188.662 175.282C188.925 175.355 189.18 175.43 189.426 175.508Z" fill="white"/>
<path d="M190.319 178.561C190.319 178.617 190.313 178.673 190.307 178.728C189.997 180.664 184.365 182.211 177.485 182.211C170.605 182.211 164.974 180.664 164.664 178.728C164.656 178.673 164.651 178.617 164.651 178.561C164.651 176.548 170.408 174.911 177.485 174.911C184.562 174.911 190.319 176.548 190.319 178.561Z" fill="#FA8A00"/>
<path d="M190.307 178.729C189.997 180.664 184.365 182.212 177.485 182.212C177.331 182.212 177.179 182.21 177.027 182.209C175.493 182.194 174.026 182.102 172.673 181.945C171.318 181.789 170.08 181.569 169.002 181.298C168.728 181.23 168.465 181.158 168.21 181.082C167.061 180.74 166.14 180.334 165.526 179.885C165.378 179.778 165.247 179.667 165.136 179.555C164.871 179.291 164.712 179.014 164.665 178.729C164.975 176.794 170.607 175.246 177.487 175.246C178.357 175.246 179.207 175.271 180.031 175.319C180.451 175.342 180.864 175.373 181.269 175.409C182.921 175.554 184.433 175.791 185.727 176.101C186.007 176.168 186.277 176.238 186.537 176.312C187.545 176.597 188.388 176.93 189.021 177.297C189.637 177.655 190.052 178.045 190.228 178.456C190.265 178.545 190.292 178.637 190.307 178.729Z" fill="#FFAC00"/>
<path opacity="0.2" d="M190.226 178.454L177.027 182.208C175.493 182.192 174.026 182.1 172.672 181.944L189.019 177.294C189.635 177.652 190.05 178.043 190.226 178.454Z" fill="white"/>
<path opacity="0.2" d="M181.267 175.408L165.525 179.884C165.377 179.777 165.246 179.667 165.135 179.554L180.03 175.318C180.449 175.342 180.862 175.372 181.267 175.408Z" fill="white"/>
<path opacity="0.2" d="M186.535 176.309L169.001 181.296C168.728 181.227 168.464 181.155 168.21 181.08L185.726 176.098C186.006 176.165 186.276 176.235 186.535 176.309Z" fill="white"/>
<path d="M179.27 180.631V181.238H176.561V180.658C174.64 180.626 172.777 180.478 171.624 180.276L173.084 179.336C174.352 179.55 176.042 179.686 177.522 179.686C178.809 179.686 179.27 179.61 179.27 179.479C179.27 178.998 171.836 179.386 171.836 177.96C171.836 177.343 173.411 176.823 176.561 176.698V176.103H179.27V176.687C180.692 176.725 182.075 176.829 183.169 177.004L181.805 177.938C180.48 177.747 179.232 177.654 178.06 177.654C176.734 177.654 176.312 177.763 176.312 177.894C176.312 178.353 183.745 177.97 183.745 179.381C183.745 179.97 182.247 180.484 179.27 180.631Z" fill="#FA8A00"/>
<path d="M179.191 180.429V181.036H176.482V180.457C174.561 180.424 172.698 180.276 171.545 180.074L173.005 179.134C174.273 179.347 175.964 179.484 177.443 179.484C178.73 179.484 179.191 179.408 179.191 179.276C179.191 178.795 171.757 179.183 171.757 177.757C171.757 177.14 173.332 176.621 176.483 176.495V175.899H179.192V176.484C180.613 176.522 181.996 176.626 183.091 176.801L181.727 177.735C180.401 177.544 179.153 177.451 177.981 177.451C176.656 177.451 176.233 177.56 176.233 177.691C176.233 178.15 183.667 177.767 183.667 179.177C183.667 179.769 182.168 180.282 179.191 180.429Z" fill="#FFCE4F"/>
<path d="M194.553 176.446C194.554 176.461 194.554 176.476 194.554 176.491C194.554 177.049 194.257 177.585 193.709 178.085C193.576 178.208 193.427 178.327 193.264 178.445C192.808 178.774 192.241 179.084 191.578 179.373C191.434 179.435 191.286 179.496 191.133 179.556C190.618 179.759 190.055 179.949 189.447 180.125C189.302 180.167 189.153 180.208 189.002 180.249C188.469 180.392 187.906 180.523 187.315 180.644C187.168 180.674 187.02 180.703 186.87 180.731C186.328 180.834 185.765 180.927 185.184 181.009C185.036 181.03 184.888 181.05 184.738 181.07C184.191 181.141 183.628 181.204 183.052 181.257C182.905 181.27 182.756 181.283 182.607 181.295C182.056 181.34 181.493 181.376 180.921 181.404C180.773 181.411 180.625 181.417 180.475 181.422C179.922 181.443 179.359 181.456 178.789 181.459C178.69 181.46 178.591 181.46 178.491 181.46C178.443 181.46 178.393 181.46 178.344 181.459C177.774 181.458 177.212 181.447 176.657 181.427C176.508 181.422 176.36 181.416 176.212 181.41C175.79 181.391 175.374 181.367 174.963 181.339C174.816 181.329 174.671 181.318 174.526 181.307C174.377 181.295 174.229 181.283 174.081 181.27C173.505 181.22 172.942 181.159 172.395 181.089C172.245 181.07 172.097 181.051 171.949 181.03C171.6 180.982 171.259 180.93 170.923 180.875C170.7 180.837 170.481 180.799 170.263 180.759C170.113 180.731 169.965 180.703 169.818 180.674C169.228 180.556 168.664 180.427 168.131 180.288C168.026 180.261 167.922 180.233 167.818 180.205C167.774 180.192 167.73 180.18 167.686 180.167C167.445 180.1 167.21 180.03 166.983 179.957C166.639 179.847 166.311 179.733 166 179.615C165.848 179.556 165.699 179.497 165.556 179.437C164.986 179.198 164.485 178.943 164.06 178.674C163.995 178.633 163.931 178.591 163.869 178.549C163.792 178.497 163.718 178.445 163.647 178.391C163.569 178.334 163.495 178.275 163.425 178.216C162.782 177.679 162.43 177.097 162.43 176.492C162.43 176.449 162.432 176.407 162.436 176.364L162.438 172.93L163.425 172.929L163.87 172.928L165.556 172.926L166.001 172.925L167.317 172.923L167.688 172.923L168.133 172.922L169.82 172.92L170.265 172.919L171.951 172.917L172.396 172.916L174.082 172.913L174.528 172.912L176.214 172.91L176.659 172.909L178.346 172.907L178.791 172.906L180.477 172.904L180.923 172.903L182.609 172.9L183.054 172.899L184.74 172.897L185.186 172.896L186.872 172.894L187.317 172.893L189.004 172.891L189.449 172.89H189.559L191.135 172.887L191.58 172.887L193.266 172.884L193.711 172.883L194.549 172.882L194.553 176.446Z" fill="#FFAC00"/>
<path d="M163.871 172.927V178.549C163.793 178.497 163.719 178.444 163.649 178.391C163.571 178.333 163.497 178.274 163.427 178.215V172.928L163.871 172.927Z" fill="#FA8A00"/>
<path d="M166.002 172.924V179.615C165.85 179.556 165.701 179.497 165.558 179.437V172.926L166.002 172.924Z" fill="#FA8A00"/>
<path d="M168.133 172.921V180.288C168.028 180.26 167.924 180.232 167.821 180.204C167.776 180.192 167.732 180.179 167.689 180.167V172.922L168.133 172.921Z" fill="#FA8A00"/>
<path d="M170.265 172.918V180.759C170.115 180.731 169.966 180.703 169.82 180.674V172.919L170.265 172.918Z" fill="#FA8A00"/>
<path d="M172.396 172.916V181.09C172.246 181.071 172.099 181.052 171.951 181.031V172.917L172.396 172.916Z" fill="#FA8A00"/>
<path d="M174.527 172.912V181.307C174.378 181.296 174.23 181.283 174.083 181.27V172.912H174.527Z" fill="#FA8A00"/>
<path d="M176.659 172.909V181.428C176.51 181.423 176.362 181.417 176.214 181.411V172.91L176.659 172.909Z" fill="#FA8A00"/>
<path d="M178.79 172.905V181.459C178.691 181.459 178.591 181.459 178.492 181.459C178.444 181.459 178.394 181.459 178.345 181.459V172.906L178.79 172.905Z" fill="#FA8A00"/>
<path d="M180.922 172.903V181.404C180.775 181.411 180.626 181.418 180.477 181.423V172.903H180.922Z" fill="#FA8A00"/>
<path d="M183.053 172.899V181.256C182.906 181.27 182.757 181.283 182.608 181.295V172.9L183.053 172.899Z" fill="#FA8A00"/>
<path d="M185.184 172.896V181.01C185.037 181.031 184.889 181.051 184.74 181.07V172.896H185.184Z" fill="#FA8A00"/>
<path d="M187.315 172.893V180.643C187.169 180.673 187.021 180.702 186.871 180.731V172.893L187.315 172.893Z" fill="#FA8A00"/>
<path d="M189.447 172.89V180.125C189.302 180.168 189.153 180.209 189.002 180.25V172.891L189.447 172.89Z" fill="#FA8A00"/>
<path d="M191.578 172.887V179.373C191.434 179.436 191.286 179.497 191.134 179.557V172.888L191.578 172.887Z" fill="#FA8A00"/>
<path d="M193.71 172.883V178.084C193.577 178.207 193.428 178.327 193.265 178.444V172.883H193.71Z" fill="#FA8A00"/>
<path d="M194.55 172.926C194.55 175.449 187.363 177.493 178.494 177.493C177.282 177.493 176.102 177.456 174.967 177.383C173.54 177.292 172.184 177.147 170.929 176.956C169.808 176.786 168.766 176.578 167.825 176.34C167.537 176.268 167.258 176.191 166.99 176.113C165.809 175.768 164.819 175.37 164.067 174.934C163.92 174.849 163.781 174.762 163.654 174.674C162.87 174.136 162.437 173.546 162.437 172.927C162.437 172.871 162.442 172.815 162.45 172.758C162.762 170.315 169.826 168.36 178.494 168.36C180.627 168.36 182.663 168.479 184.525 168.693C184.884 168.735 185.237 168.78 185.584 168.829C187.096 169.041 188.473 169.318 189.671 169.649C189.935 169.721 190.19 169.797 190.436 169.875C191.31 170.151 192.067 170.458 192.685 170.79C193.323 171.131 193.812 171.499 194.129 171.885C194.361 172.167 194.5 172.459 194.538 172.758C194.547 172.813 194.55 172.87 194.55 172.926Z" fill="#FFCE4F"/>
<path opacity="0.3" d="M194.129 171.883L174.967 177.382C173.54 177.291 172.185 177.146 170.929 176.955L192.685 170.788C193.322 171.129 193.812 171.497 194.129 171.883Z" fill="white"/>
<path opacity="0.3" d="M185.584 168.827L164.068 174.932C163.92 174.847 163.782 174.76 163.655 174.672L184.525 168.692C184.885 168.733 185.238 168.778 185.584 168.827Z" fill="white"/>
<path opacity="0.3" d="M190.436 169.874L167.825 176.34C167.537 176.268 167.259 176.191 166.99 176.113L189.672 169.648C189.935 169.722 190.19 169.797 190.436 169.874Z" fill="white"/>
<path d="M191.328 172.927C191.328 172.983 191.323 173.039 191.316 173.095C191.006 175.03 185.374 176.577 178.495 176.577C171.615 176.577 165.983 175.03 165.674 173.095C165.666 173.039 165.661 172.983 165.661 172.927C165.661 170.914 171.418 169.277 178.495 169.277C185.571 169.277 191.328 170.914 191.328 172.927Z" fill="#FA8A00"/>
<path d="M191.316 173.095C191.006 175.03 185.375 176.577 178.495 176.577C178.341 176.577 178.189 176.576 178.037 176.575C176.503 176.559 175.036 176.468 173.683 176.311C172.328 176.155 171.09 175.935 170.012 175.664C169.738 175.595 169.475 175.523 169.22 175.448C168.071 175.105 167.15 174.7 166.536 174.25C166.388 174.143 166.257 174.033 166.146 173.92C165.881 173.656 165.722 173.379 165.675 173.095C165.985 171.159 171.617 169.611 178.497 169.611C179.367 169.611 180.217 169.636 181.041 169.684C181.46 169.707 181.874 169.738 182.279 169.774C183.931 169.919 185.443 170.157 186.737 170.466C187.017 170.533 187.287 170.603 187.547 170.677C188.555 170.962 189.398 171.295 190.031 171.662C190.647 172.02 191.062 172.41 191.238 172.822C191.275 172.911 191.302 173.002 191.316 173.095Z" fill="#FFAC00"/>
<path opacity="0.2" d="M191.235 172.819L178.036 176.573C176.502 176.558 175.035 176.466 173.682 176.31L190.029 171.66C190.644 172.018 191.059 172.408 191.235 172.819Z" fill="white"/>
<path opacity="0.2" d="M182.276 169.774L166.535 174.251C166.386 174.143 166.255 174.033 166.144 173.921L181.039 169.684C181.458 169.708 181.871 169.739 182.276 169.774Z" fill="white"/>
<path opacity="0.2" d="M187.544 170.675L170.01 175.662C169.737 175.594 169.473 175.522 169.219 175.446L186.735 170.464C187.014 170.531 187.284 170.601 187.544 170.675Z" fill="white"/>
<path d="M180.279 174.997V175.603H177.57V175.024C175.649 174.991 173.786 174.843 172.633 174.641L174.093 173.701C175.361 173.915 177.052 174.051 178.531 174.051C179.818 174.051 180.279 173.975 180.279 173.843C180.279 173.363 172.845 173.75 172.845 172.325C172.845 171.707 174.42 171.188 177.57 171.063V170.467H180.279V171.052C181.7 171.09 183.084 171.194 184.178 171.369L182.814 172.303C181.489 172.112 180.24 172.019 179.068 172.019C177.743 172.019 177.32 172.128 177.32 172.26C177.32 172.719 184.754 172.336 184.754 173.746C184.755 174.336 183.256 174.85 180.279 174.997Z" fill="#FA8A00"/>
<path d="M180.2 174.795V175.402H177.492V174.823C175.571 174.79 173.708 174.643 172.555 174.44L174.015 173.501C175.283 173.714 176.973 173.85 178.453 173.85C179.74 173.85 180.201 173.774 180.201 173.643C180.201 173.162 172.767 173.55 172.767 172.124C172.767 171.507 174.342 170.987 177.493 170.862V170.267H180.201V170.851C181.622 170.889 183.005 170.993 184.101 171.168L182.737 172.102C181.411 171.911 180.162 171.818 178.991 171.818C177.665 171.818 177.243 171.927 177.243 172.058C177.243 172.517 184.677 172.135 184.677 173.545C184.676 174.134 183.178 174.648 180.2 174.795Z" fill="#FFCE4F"/>
<path d="M194.406 170.813C194.407 170.828 194.407 170.843 194.407 170.858C194.407 171.416 194.11 171.952 193.563 172.452C193.429 172.575 193.28 172.694 193.117 172.812C192.661 173.141 192.095 173.451 191.431 173.74C191.288 173.802 191.139 173.863 190.986 173.923C190.471 174.126 189.908 174.316 189.3 174.492C189.154 174.534 189.006 174.575 188.855 174.616C188.322 174.759 187.759 174.891 187.168 175.011C187.021 175.041 186.873 175.07 186.722 175.098C186.181 175.201 185.618 175.294 185.036 175.376C184.889 175.397 184.741 175.417 184.591 175.437C184.043 175.508 183.481 175.57 182.905 175.624C182.758 175.637 182.609 175.651 182.46 175.662C181.909 175.708 181.346 175.744 180.774 175.77C180.626 175.777 180.477 175.784 180.328 175.789C179.774 175.811 179.212 175.823 178.642 175.826C178.543 175.827 178.443 175.827 178.344 175.827C178.295 175.827 178.246 175.827 178.197 175.826C177.627 175.825 177.064 175.814 176.51 175.794C176.361 175.789 176.213 175.783 176.065 175.777C175.643 175.758 175.227 175.734 174.815 175.706C174.669 175.696 174.523 175.685 174.378 175.674C174.229 175.662 174.081 175.65 173.933 175.637C173.357 175.587 172.794 175.526 172.247 175.456C172.097 175.437 171.949 175.418 171.801 175.397C171.453 175.349 171.111 175.297 170.775 175.241C170.552 175.204 170.333 175.165 170.115 175.126C169.965 175.098 169.817 175.069 169.67 175.04C169.08 174.923 168.516 174.794 167.983 174.655C167.878 174.628 167.774 174.6 167.67 174.571C167.626 174.559 167.582 174.546 167.538 174.534C167.297 174.466 167.062 174.396 166.835 174.324C166.49 174.214 166.163 174.1 165.852 173.981C165.699 173.922 165.551 173.863 165.406 173.803C164.838 173.564 164.336 173.309 163.911 173.041C163.846 173 163.782 172.958 163.72 172.916C163.643 172.864 163.569 172.811 163.498 172.758C163.42 172.7 163.346 172.641 163.276 172.582C162.633 172.046 162.281 171.464 162.281 170.858C162.281 170.815 162.283 170.773 162.287 170.73L162.289 167.297L163.276 167.295L163.722 167.294L165.408 167.292L165.853 167.291L167.169 167.289L167.539 167.289L167.984 167.288L169.671 167.286L170.116 167.285L171.802 167.282L172.248 167.281L173.934 167.278L174.379 167.277L176.065 167.275L176.511 167.274L178.197 167.272L178.643 167.271L180.329 167.269L180.774 167.268L182.46 167.266L182.906 167.265L184.592 167.263L185.037 167.262L186.723 167.259L187.168 167.259L188.855 167.256L189.3 167.255H189.41L190.987 167.253L191.432 167.252L193.118 167.249L193.563 167.248L194.401 167.247L194.406 170.813Z" fill="#FFAC00"/>
<path d="M163.725 167.293V172.915C163.647 172.863 163.573 172.81 163.503 172.757C163.425 172.699 163.351 172.64 163.281 172.581V167.295L163.725 167.293Z" fill="#FA8A00"/>
<path d="M165.855 167.291V173.981C165.703 173.922 165.555 173.863 165.411 173.803V167.292L165.855 167.291Z" fill="#FA8A00"/>
<path d="M167.987 167.288V174.655C167.882 174.628 167.778 174.6 167.674 174.571C167.63 174.559 167.586 174.546 167.542 174.534V167.289L167.987 167.288Z" fill="#FA8A00"/>
<path d="M170.119 167.286V175.126C169.969 175.099 169.82 175.07 169.674 175.041V167.286L170.119 167.286Z" fill="#FA8A00"/>
<path d="M172.25 167.282V175.456C172.1 175.437 171.952 175.418 171.805 175.397V167.282L172.25 167.282Z" fill="#FA8A00"/>
<path d="M174.38 167.278V175.674C174.231 175.662 174.083 175.65 173.936 175.636V167.279L174.38 167.278Z" fill="#FA8A00"/>
<path d="M176.513 167.276V175.795C176.364 175.79 176.216 175.784 176.068 175.778V167.277L176.513 167.276Z" fill="#FA8A00"/>
<path d="M178.644 167.272V175.826C178.545 175.826 178.445 175.826 178.346 175.826C178.298 175.826 178.248 175.826 178.199 175.826V167.273L178.644 167.272Z" fill="#FA8A00"/>
<path d="M180.775 167.269V175.77C180.628 175.777 180.48 175.784 180.331 175.789V167.27L180.775 167.269Z" fill="#FA8A00"/>
<path d="M182.906 167.266V175.623C182.759 175.637 182.611 175.65 182.462 175.662V167.266L182.906 167.266Z" fill="#FA8A00"/>
<path d="M185.038 167.263V175.376C184.891 175.397 184.743 175.417 184.594 175.437V167.263H185.038Z" fill="#FA8A00"/>
<path d="M187.168 167.259V175.01C187.022 175.04 186.874 175.069 186.724 175.098V167.26L187.168 167.259Z" fill="#FA8A00"/>
<path d="M189.3 167.256V174.491C189.155 174.533 189.007 174.575 188.855 174.615V167.257L189.3 167.256Z" fill="#FA8A00"/>
<path d="M191.433 167.253V173.739C191.289 173.802 191.141 173.863 190.988 173.923V167.253H191.433Z" fill="#FA8A00"/>
<path d="M193.563 167.25V172.452C193.43 172.574 193.281 172.694 193.118 172.811V167.25H193.563Z" fill="#FA8A00"/>
<path d="M194.403 167.292C194.403 169.814 187.215 171.859 178.347 171.859C177.135 171.859 175.954 171.821 174.82 171.749C173.392 171.658 172.037 171.513 170.781 171.322C169.66 171.151 168.619 170.944 167.677 170.705C167.389 170.633 167.11 170.556 166.842 170.478C165.661 170.133 164.671 169.736 163.919 169.299C163.772 169.214 163.633 169.127 163.506 169.039C162.722 168.501 162.289 167.911 162.289 167.293C162.289 167.236 162.294 167.18 162.302 167.123C162.614 164.68 169.678 162.726 178.346 162.726C180.479 162.726 182.515 162.844 184.377 163.059C184.736 163.1 185.09 163.146 185.436 163.194C186.948 163.406 188.325 163.683 189.523 164.014C189.787 164.087 190.042 164.162 190.288 164.24C191.162 164.517 191.919 164.823 192.537 165.155C193.174 165.497 193.664 165.864 193.981 166.25C194.213 166.532 194.352 166.824 194.39 167.123C194.4 167.179 194.403 167.236 194.403 167.292Z" fill="#FFCE4F"/>
<path opacity="0.3" d="M193.982 166.25L174.82 171.749C173.393 171.659 172.037 171.514 170.781 171.322L192.538 165.155C193.176 165.496 193.665 165.863 193.982 166.25Z" fill="white"/>
<path opacity="0.3" d="M185.437 163.192L163.92 169.298C163.773 169.213 163.634 169.126 163.507 169.038L184.378 163.058C184.737 163.099 185.091 163.144 185.437 163.192Z" fill="white"/>
<path opacity="0.3" d="M190.289 164.24L167.678 170.707C167.39 170.634 167.112 170.558 166.844 170.479L189.525 164.015C189.788 164.087 190.043 164.163 190.289 164.24Z" fill="white"/>
<path d="M191.181 167.294C191.181 167.35 191.175 167.406 191.168 167.461C190.859 169.397 185.227 170.944 178.347 170.944C171.467 170.944 165.836 169.397 165.526 167.461C165.519 167.405 165.514 167.35 165.514 167.294C165.514 165.281 171.271 163.644 178.348 163.644C185.424 163.643 191.181 165.281 191.181 167.294Z" fill="#FA8A00"/>
<path d="M191.168 167.462C190.859 169.397 185.227 170.945 178.347 170.945C178.193 170.945 178.041 170.943 177.889 170.942C176.354 170.927 174.888 170.835 173.534 170.678C172.18 170.522 170.941 170.302 169.863 170.031C169.59 169.962 169.326 169.89 169.072 169.815C167.922 169.472 167.002 169.067 166.388 168.618C166.239 168.51 166.108 168.399 165.998 168.288C165.732 168.023 165.573 167.747 165.527 167.462C165.837 165.526 171.468 163.979 178.348 163.979C179.218 163.979 180.068 164.003 180.892 164.051C181.311 164.075 181.725 164.105 182.13 164.141C183.782 164.286 185.294 164.524 186.588 164.833C186.868 164.9 187.138 164.97 187.398 165.044C188.406 165.33 189.249 165.662 189.882 166.029C190.498 166.387 190.913 166.778 191.089 167.189C191.127 167.278 191.154 167.369 191.168 167.462Z" fill="#FFAC00"/>
<path opacity="0.2" d="M191.088 167.186L177.889 170.94C176.355 170.924 174.888 170.832 173.534 170.676L189.882 166.026C190.497 166.385 190.913 166.775 191.088 167.186Z" fill="white"/>
<path opacity="0.2" d="M182.129 164.14L166.388 168.617C166.239 168.51 166.108 168.399 165.997 168.287L180.892 164.051C181.311 164.074 181.725 164.105 182.129 164.14Z" fill="white"/>
<path opacity="0.2" d="M187.397 165.042L169.863 170.029C169.59 169.96 169.326 169.888 169.072 169.813L186.588 164.831C186.867 164.897 187.138 164.968 187.397 165.042Z" fill="white"/>
<path d="M180.132 169.363V169.969H177.423V169.389C175.502 169.356 173.639 169.209 172.486 169.006L173.946 168.067C175.214 168.279 176.905 168.416 178.384 168.416C179.671 168.416 180.132 168.34 180.132 168.209C180.132 167.728 172.698 168.116 172.698 166.69C172.698 166.073 174.273 165.554 177.424 165.428V164.832H180.132V165.416C181.554 165.455 182.937 165.558 184.032 165.733L182.668 166.668C181.342 166.477 180.094 166.384 178.922 166.384C177.597 166.384 177.174 166.493 177.174 166.624C177.174 167.083 184.608 166.701 184.608 168.11C184.607 168.701 183.109 169.215 180.132 169.363Z" fill="#FA8A00"/>
<path d="M180.053 169.162V169.768H177.344V169.189C175.424 169.156 173.56 169.008 172.408 168.806L173.868 167.866C175.136 168.08 176.826 168.216 178.305 168.216C179.592 168.216 180.053 168.14 180.053 168.008C180.053 167.528 172.62 167.915 172.62 166.49C172.62 165.872 174.195 165.353 177.345 165.228V164.632H180.053V165.217C181.475 165.255 182.858 165.359 183.952 165.534L182.589 166.468C181.263 166.277 180.014 166.184 178.843 166.184C177.517 166.184 177.095 166.293 177.095 166.424C177.095 166.883 184.529 166.5 184.529 167.91C184.529 168.5 183.03 169.014 180.053 169.162Z" fill="#FFCE4F"/>
<path d="M193.608 165.775C193.609 165.789 193.609 165.804 193.609 165.82C193.609 166.378 193.312 166.914 192.764 167.414C192.63 167.536 192.482 167.656 192.319 167.773C191.863 168.103 191.296 168.413 190.633 168.701C190.489 168.764 190.34 168.825 190.187 168.885C189.673 169.088 189.109 169.278 188.501 169.453C188.356 169.496 188.208 169.537 188.056 169.577C187.523 169.72 186.96 169.852 186.369 169.973C186.223 170.002 186.075 170.032 185.924 170.06C185.383 170.162 184.82 170.256 184.238 170.338C184.091 170.359 183.942 170.379 183.793 170.399C183.245 170.47 182.683 170.532 182.107 170.585C181.959 170.599 181.81 170.612 181.661 170.624C181.11 170.669 180.547 170.705 179.975 170.732C179.828 170.739 179.679 170.746 179.53 170.751C178.976 170.772 178.414 170.785 177.844 170.788C177.745 170.788 177.645 170.789 177.546 170.789C177.497 170.789 177.447 170.789 177.398 170.788C176.828 170.787 176.266 170.777 175.712 170.757C175.562 170.752 175.414 170.746 175.266 170.739C174.844 170.721 174.428 170.697 174.018 170.669C173.871 170.659 173.725 170.648 173.58 170.636C173.431 170.625 173.283 170.612 173.135 170.599C172.559 170.549 171.996 170.488 171.449 170.419C171.299 170.399 171.151 170.38 171.003 170.359C170.655 170.311 170.313 170.259 169.978 170.203C169.755 170.166 169.535 170.128 169.317 170.088C169.167 170.06 169.019 170.032 168.872 170.002C168.282 169.885 167.719 169.756 167.185 169.617C167.08 169.59 166.976 169.562 166.872 169.533C166.828 169.522 166.784 169.509 166.74 169.496C166.499 169.429 166.264 169.358 166.037 169.286C165.693 169.176 165.365 169.062 165.054 168.943C164.901 168.884 164.753 168.826 164.609 168.765C164.04 168.527 163.538 168.272 163.113 168.003C163.048 167.962 162.984 167.92 162.922 167.878C162.845 167.826 162.771 167.773 162.7 167.72C162.622 167.662 162.548 167.603 162.478 167.544C161.835 167.008 161.483 166.426 161.483 165.82C161.483 165.778 161.485 165.735 161.489 165.693L161.49 162.259L162.477 162.258L162.922 162.257L164.609 162.255L165.054 162.253L166.37 162.252L166.74 162.251L167.185 162.25L168.872 162.248L169.317 162.247L171.003 162.244L171.449 162.243L173.135 162.241L173.58 162.24L175.266 162.238L175.712 162.237L177.398 162.235L177.844 162.234L179.53 162.232L179.975 162.231L181.661 162.228L182.107 162.227L183.793 162.224L184.238 162.224L185.924 162.221L186.369 162.221L188.056 162.218L188.501 162.217H188.611L190.187 162.215L190.633 162.214L192.319 162.212L192.764 162.211L193.602 162.21L193.608 165.775Z" fill="#FFAC00"/>
<path d="M162.924 162.255V167.877C162.846 167.825 162.772 167.772 162.702 167.718C162.624 167.661 162.55 167.602 162.479 167.543V162.255L162.924 162.255Z" fill="#FA8A00"/>
<path d="M165.057 162.252V168.943C164.904 168.884 164.756 168.825 164.612 168.765V162.254L165.057 162.252Z" fill="#FA8A00"/>
<path d="M167.188 162.25V169.617C167.083 169.59 166.979 169.562 166.876 169.533C166.832 169.521 166.788 169.508 166.744 169.496V162.251L167.188 162.25Z" fill="#FA8A00"/>
<path d="M169.32 162.247V170.087C169.17 170.059 169.021 170.031 168.875 170.002V162.247L169.32 162.247Z" fill="#FA8A00"/>
<path d="M171.451 162.243V170.418C171.301 170.398 171.154 170.379 171.006 170.358V162.244L171.451 162.243Z" fill="#FA8A00"/>
<path d="M173.582 162.24V170.635C173.433 170.623 173.285 170.611 173.137 170.598V162.24L173.582 162.24Z" fill="#FA8A00"/>
<path d="M175.713 162.237V170.757C175.564 170.752 175.416 170.746 175.269 170.739V162.239L175.713 162.237Z" fill="#FA8A00"/>
<path d="M177.844 162.233V170.786C177.746 170.787 177.646 170.788 177.547 170.788C177.498 170.788 177.449 170.788 177.4 170.787V162.234L177.844 162.233Z" fill="#FA8A00"/>
<path d="M179.977 162.231V170.732C179.83 170.739 179.681 170.745 179.532 170.751V162.232L179.977 162.231Z" fill="#FA8A00"/>
<path d="M182.108 162.228V170.585C181.961 170.599 181.812 170.612 181.663 170.624V162.228L182.108 162.228Z" fill="#FA8A00"/>
<path d="M184.239 162.224V170.337C184.092 170.358 183.944 170.378 183.794 170.398V162.224H184.239Z" fill="#FA8A00"/>
<path d="M186.37 162.221V169.972C186.224 170.001 186.076 170.03 185.926 170.059V162.221L186.37 162.221Z" fill="#FA8A00"/>
<path d="M188.502 162.218V169.453C188.357 169.495 188.209 169.537 188.057 169.577V162.219L188.502 162.218Z" fill="#FA8A00"/>
<path d="M190.633 162.214V168.7C190.489 168.763 190.341 168.824 190.188 168.884V162.214H190.633Z" fill="#FA8A00"/>
<path d="M192.764 162.212V167.413C192.63 167.536 192.482 167.656 192.319 167.773V162.212H192.764Z" fill="#FA8A00"/>
<path d="M193.605 162.254C193.605 164.776 186.417 166.821 177.548 166.821C176.336 166.821 175.156 166.783 174.021 166.711C172.594 166.62 171.239 166.475 169.983 166.284C168.862 166.113 167.821 165.906 166.879 165.667C166.591 165.595 166.312 165.519 166.044 165.44C164.864 165.095 163.873 164.698 163.121 164.261C162.974 164.176 162.836 164.089 162.708 164.001C161.924 163.463 161.491 162.873 161.491 162.255C161.491 162.198 161.495 162.142 161.504 162.085C161.816 159.642 168.88 157.688 177.548 157.688C179.681 157.688 181.717 157.806 183.579 158.021C183.939 158.062 184.292 158.107 184.638 158.156C186.151 158.368 187.528 158.645 188.725 158.976C188.989 159.049 189.244 159.124 189.49 159.202C190.364 159.478 191.121 159.786 191.74 160.117C192.376 160.458 192.866 160.826 193.183 161.212C193.415 161.494 193.554 161.786 193.592 162.085C193.602 162.141 193.605 162.198 193.605 162.254Z" fill="#FFCE4F"/>
<path opacity="0.3" d="M193.184 161.212L174.022 166.711C172.595 166.621 171.239 166.475 169.984 166.284L191.74 160.117C192.377 160.458 192.866 160.825 193.184 161.212Z" fill="white"/>
<path opacity="0.3" d="M184.637 158.154L163.12 164.26C162.973 164.175 162.834 164.088 162.707 164L183.578 158.02C183.937 158.06 184.29 158.105 184.637 158.154Z" fill="white"/>
<path opacity="0.3" d="M189.491 159.202L166.88 165.668C166.592 165.596 166.313 165.52 166.045 165.441L188.726 158.977C188.989 159.049 189.245 159.124 189.491 159.202Z" fill="white"/>
<path d="M190.383 162.255C190.383 162.311 190.377 162.367 190.37 162.422C190.061 164.358 184.429 165.905 177.549 165.905C170.669 165.905 165.038 164.358 164.727 162.422C164.72 162.367 164.715 162.311 164.715 162.255C164.715 160.242 170.472 158.604 177.549 158.604C184.626 158.604 190.383 160.242 190.383 162.255Z" fill="#FA8A00"/>
<path d="M190.37 162.423C190.06 164.358 184.428 165.906 177.548 165.906C177.394 165.906 177.242 165.904 177.09 165.903C175.555 165.888 174.089 165.796 172.735 165.639C171.381 165.483 170.142 165.263 169.064 164.992C168.79 164.923 168.527 164.851 168.272 164.776C167.123 164.433 166.202 164.028 165.589 163.579C165.44 163.471 165.309 163.361 165.198 163.248C164.933 162.984 164.774 162.708 164.728 162.423C165.037 160.487 170.669 158.939 177.549 158.939C178.419 158.939 179.27 158.964 180.093 159.012C180.513 159.036 180.926 159.066 181.331 159.102C182.984 159.247 184.495 159.485 185.79 159.794C186.069 159.861 186.34 159.931 186.599 160.005C187.608 160.291 188.451 160.623 189.083 160.99C189.699 161.348 190.114 161.739 190.29 162.15C190.328 162.239 190.355 162.331 190.37 162.423Z" fill="#FFAC00"/>
<path opacity="0.2" d="M190.29 162.148L177.09 165.903C175.556 165.887 174.089 165.795 172.735 165.639L189.082 160.989C189.699 161.347 190.114 161.737 190.29 162.148Z" fill="white"/>
<path opacity="0.2" d="M181.331 159.102L165.589 163.578C165.441 163.471 165.31 163.36 165.199 163.248L180.094 159.012C180.513 159.036 180.926 159.066 181.331 159.102Z" fill="white"/>
<path opacity="0.2" d="M186.599 160.003L169.065 164.991C168.792 164.922 168.528 164.85 168.274 164.775L185.79 159.792C186.069 159.859 186.339 159.93 186.599 160.003Z" fill="white"/>
<path d="M179.334 164.324V164.931H176.625V164.351C174.704 164.319 172.841 164.171 171.688 163.969L173.148 163.029C174.416 163.242 176.106 163.379 177.585 163.379C178.873 163.379 179.334 163.302 179.334 163.171C179.334 162.69 171.9 163.078 171.9 161.652C171.9 161.035 173.475 160.516 176.625 160.39V159.795H179.334V160.379C180.756 160.418 182.139 160.521 183.233 160.696L181.869 161.631C180.544 161.44 179.296 161.346 178.124 161.346C176.798 161.346 176.376 161.456 176.376 161.587C176.376 162.046 183.81 161.663 183.81 163.073C183.809 163.663 182.311 164.177 179.334 164.324Z" fill="#FA8A00"/>
<path d="M179.255 164.123V164.729H176.546V164.15C174.626 164.117 172.762 163.969 171.61 163.768L173.07 162.828C174.338 163.041 176.028 163.178 177.507 163.178C178.794 163.178 179.255 163.101 179.255 162.97C179.255 162.489 171.821 162.877 171.821 161.451C171.821 160.834 173.397 160.315 176.547 160.189V159.593H179.256V160.178C180.677 160.216 182.06 160.32 183.155 160.495L181.791 161.429C180.465 161.238 179.217 161.145 178.045 161.145C176.72 161.145 176.297 161.254 176.297 161.385C176.297 161.845 183.732 161.462 183.732 162.872C183.731 163.462 182.233 163.975 179.255 164.123Z" fill="#FFCE4F"/>
<path d="M55.5033 104.335L56.2051 106.486C53.9906 107.787 48.4047 110.844 45.9153 111.761C45.1757 112.033 44.1412 112.371 42.965 112.736C42.5165 112.876 42.047 113.021 41.5645 113.166C41.1494 113.29 40.7251 113.416 40.2971 113.543C40.2785 113.549 40.2587 113.555 40.2395 113.56C39.6727 113.625 38.9536 113.706 38.1372 113.79L38.1446 110.363L39.4894 109.99L40.281 109.771L41.3978 109.462L43.8427 108.785C45.6725 107.655 53.6382 105.319 55.5033 104.335Z" fill="#FDA893"/>
<path d="M58.6505 103.028C58.7113 103.005 59.4428 102.735 59.6577 103.04C59.8826 103.357 59.6243 103.678 59.6243 103.678C59.6243 103.678 60.1619 103.981 60.1756 104.294C60.1886 104.608 59.9334 104.822 59.9334 104.822C59.9334 104.822 60.2784 104.992 60.2679 105.288C60.2579 105.585 59.8516 106.018 59.2495 106.177C58.715 106.318 58.4486 106.204 58.3972 106.178C58.391 106.173 58.3873 106.171 58.3873 106.171C58.3873 106.171 58.2882 106.209 58.1141 106.266C57.8242 106.363 57.3262 106.518 56.7446 106.648C55.8148 106.856 54.6633 105.575 54.5791 104.747C54.5791 104.747 54.9198 103.638 55.3106 103C55.7015 102.362 55.9852 102.212 56.4584 102.274C56.9317 102.337 57.3962 102.496 57.4978 102.477C57.6 102.46 60.0145 101.204 60.5683 101.365C61.1103 101.524 58.7552 102.964 58.6505 103.028Z" fill="#FDA893"/>
<path d="M56.0323 104.146C56.0113 104.146 55.9896 104.141 55.9698 104.13C55.906 104.095 55.8818 104.015 55.9165 103.951L56.2089 103.408C56.2262 103.375 56.2566 103.351 56.2925 103.342C56.3284 103.333 56.3662 103.34 56.3972 103.36C56.4027 103.364 57.0017 103.752 57.5512 103.614C57.719 103.572 57.8324 103.502 57.8782 103.412C57.9296 103.309 57.8869 103.2 57.8863 103.2C57.859 103.132 57.8906 103.055 57.9569 103.028C58.0231 103 58.1 103.029 58.1284 103.096C58.1377 103.118 58.2189 103.318 58.1154 103.527C58.0337 103.693 57.8658 103.808 57.6149 103.871C57.112 103.997 56.6041 103.776 56.3755 103.653L56.1475 104.077C56.1246 104.12 56.0794 104.146 56.0323 104.146Z" fill="#FD896B"/>
<path d="M58.3955 106.176C58.3893 106.172 58.3856 106.17 58.3856 106.17C58.3856 106.17 58.2866 106.207 58.1128 106.265C57.8821 105.992 57.8654 105.666 57.8505 105.391C57.8381 105.153 57.827 104.947 57.7014 104.796C57.5715 104.641 57.5189 104.47 57.5096 104.306C57.4979 104.148 57.5282 103.997 57.5666 103.875C57.5808 103.829 57.5956 103.786 57.6105 103.75C57.6488 103.656 57.6847 103.595 57.6897 103.587C57.7274 103.524 57.8078 103.503 57.8703 103.541C57.9328 103.578 57.9526 103.659 57.9161 103.721C57.9155 103.722 57.9099 103.732 57.9012 103.749C57.8635 103.821 57.7726 104.023 57.7726 104.24C57.7726 104.371 57.806 104.508 57.9043 104.626C58.0856 104.843 58.1011 105.114 58.1147 105.376C58.1301 105.675 58.145 105.958 58.3955 106.176Z" fill="#FD896B"/>
<path d="M56.5648 105.201C56.5153 105.201 56.4683 105.173 56.4454 105.125C56.4144 105.059 56.4429 104.98 56.5085 104.949C56.5165 104.946 57.2966 104.567 57.3752 103.82C57.3826 103.748 57.4482 103.695 57.5199 103.703C57.5923 103.71 57.6443 103.776 57.6368 103.848C57.5428 104.744 56.6582 105.171 56.6204 105.188C56.6025 105.196 56.5833 105.201 56.5648 105.201Z" fill="#FD896B"/>
<path d="M53.8537 105.008C48.9182 106.679 45.1924 107.79 41.3384 108.734C34.4399 110.425 30.7673 109.43 30.7673 109.43L33.3596 114.201L33.8205 115.05C34.5774 115.254 35.465 115.273 36.3663 115.187C38.9486 114.943 41.6357 113.847 41.6357 113.847C48.7088 111.08 53.3365 108.861 55.2518 107.535L53.8537 105.008Z" fill="#0172D0"/>
<path d="M53.7268 104.658L52.5381 105.217L54.1672 108.344L55.3936 107.637L53.7268 104.658Z" fill="#0056C5"/>
<path d="M36.3665 115.188C35.4659 115.274 34.5776 115.255 33.8207 115.051L33.3599 114.202C33.4565 113.776 33.7024 113.427 34.1818 113.24C34.1818 113.24 34.7907 114.479 36.3665 115.188Z" fill="#0056C5"/>
<path d="M16.1827 174.76L14.1597 177.47C14.1597 177.47 14.5288 178.682 16.0272 179.615L18.4467 176.497L16.1827 174.76Z" fill="#FDA893"/>
<path d="M15.691 178.775C15.691 178.775 16.6374 178.571 16.9614 178.898C17.2853 179.226 18.098 183.685 18.8581 184.66C19.6181 185.635 18.8531 186.154 18.3848 186.351C17.9165 186.549 11.2107 179.839 11.2107 179.839C11.2107 179.839 12.8683 177.545 13.6679 177.1C14.4676 176.655 14.8424 178.303 15.691 178.775Z" fill="#FB6B18"/>
<path d="M28.5911 179.412L28.8977 182.782C28.8977 182.782 29.9817 183.435 31.7185 183.125L31.4336 179.187L28.5911 179.412Z" fill="#FDA893"/>
<path d="M31.1058 182.652C31.1058 182.652 31.6974 181.831 32.1774 181.859C32.6569 181.887 36.3963 184.777 37.6667 185.002C38.9365 185.228 38.7043 186.165 38.4788 186.646C38.2533 187.127 28.4213 186.851 28.4213 186.851C28.4213 186.851 28.0589 183.672 28.3686 182.767C28.6783 181.863 30.1185 182.88 31.1058 182.652Z" fill="#FB6B18"/>
<path d="M26.7053 142.836L24.6619 159.772C24.6619 159.772 22.829 162.263 21.081 165.451C19.6142 168.127 15.7063 175.068 15.7063 175.068L18.07 176.873L31.0165 163.437L34.463 142.67L26.7053 142.836Z" fill="#001030"/>
<path d="M18.6537 176.83C18.4412 177.364 18.0442 177.728 17.5808 178.033L14.8362 175.712C15.0666 175.224 15.3813 174.803 15.7715 174.44L18.6537 176.83Z" fill="#0C375A"/>
<path d="M16.2505 143.536C16.2505 143.536 19.8964 152.513 24.6343 159.513C24.6343 159.513 25.3417 166.326 26.5521 169.953C27.0817 171.541 28.108 179.064 28.108 179.064L31.7025 178.901L30.7753 157.981L26.9727 142.83L16.2505 143.536Z" fill="#0C375A"/>
<path d="M32.0371 178.778C32.265 179.404 32.2024 180.024 32.0371 180.646L27.877 180.762C27.7005 180.164 27.6478 179.556 27.7048 178.941L32.0371 178.778Z" fill="#005986"/>
<path d="M35.005 142.37C35.005 143.107 35.0031 143.69 34.9981 144.084C33.2569 144.554 31.5164 144.894 29.7764 145.102C29.7306 145.108 29.6841 145.114 29.6377 145.119C29.5596 145.129 29.4828 145.138 29.406 145.146C29.3868 145.148 29.3682 145.15 29.3478 145.151C29.0455 145.185 28.7457 145.214 28.4422 145.238C26.9457 145.362 25.4498 145.388 23.9533 145.319C23.8213 145.313 23.6919 145.306 23.5599 145.298C23.4435 145.292 23.3245 145.285 23.2062 145.276C23.1536 145.274 23.0997 145.27 23.0464 145.265C22.9461 145.259 22.8482 145.251 22.7479 145.244C20.5489 145.065 18.3506 144.68 16.1529 144.084C16.1418 143.216 16.1312 141.45 16.1275 139.171C16.1275 139.046 16.1263 138.919 16.1275 138.791C16.125 136.278 16.1343 133.193 16.164 130.016C16.1665 129.765 16.169 129.514 16.1727 129.262C16.1752 128.971 16.1783 128.678 16.1814 128.384C16.182 128.335 16.182 128.285 16.1833 128.235C16.1851 128.167 16.1857 128.098 16.187 128.029C16.1876 127.891 16.1894 127.752 16.1925 127.614C16.195 127.413 16.1981 127.212 16.2012 127.013C16.2031 126.861 16.2055 126.709 16.2074 126.556C16.2117 126.253 16.2173 125.951 16.2217 125.65C16.3276 119.344 16.5407 113.549 16.9451 112.074C16.9829 111.938 17.0226 111.838 17.0616 111.779C17.1043 111.714 17.1582 111.647 17.2177 111.579C17.2933 111.493 17.3812 111.404 17.4791 111.314C18.1536 110.693 19.3231 109.97 20.5093 109.286C20.6474 109.206 20.7868 109.126 20.9237 109.047C20.9447 109.036 24.1471 107.954 24.167 107.942L27.5168 108.177C27.9188 108.413 31.0877 109.493 31.4767 109.735C31.5919 109.807 31.7053 109.879 31.8168 109.951C32.728 110.539 33.5029 111.124 33.8411 111.621C34.3285 112.338 34.6234 118.777 34.7937 125.781C34.7981 125.943 34.8018 126.104 34.8061 126.265C34.8235 127.006 34.8396 127.751 34.8544 128.496C34.8693 129.231 34.8823 129.964 34.8947 130.692C34.9139 131.884 34.9319 133.057 34.9455 134.187C34.9473 134.315 34.948 134.443 34.9498 134.57C34.9628 135.672 34.9734 136.729 34.9814 137.715C34.982 137.844 34.9833 137.972 34.9839 138.098C34.995 139.579 35.0025 140.891 35.0031 141.943V141.945C35.0049 142.093 35.005 142.233 35.005 142.37Z" fill="#0172D0"/>
<path d="M28.849 117.962L32.6851 117.739C32.6851 117.739 32.8282 122.402 30.7866 122.259C28.7456 122.115 28.849 117.962 28.849 117.962Z" fill="#0890FE"/>
<path d="M19.4797 120.287C19.4797 120.12 19.2679 120.047 19.1669 120.18C17.8209 121.956 17.0082 123.892 16.5282 125.423C16.4049 125.816 16.299 126.196 16.2067 126.559C16.2048 126.711 16.2023 126.863 16.2005 127.015C16.1968 127.215 16.1943 127.415 16.1918 127.617C16.1893 127.754 16.1875 127.893 16.1862 128.031C16.1856 128.101 16.1844 128.17 16.1825 128.238C16.1819 128.287 16.1819 128.337 16.1807 128.387C16.307 127.62 16.517 126.619 16.862 125.518C17.3328 124.021 18.1287 122.127 19.4432 120.392C19.4673 120.361 19.4797 120.325 19.4797 120.287Z" fill="#0056C5"/>
<path d="M20.1608 138.59H20.1614C23.7788 138.574 26.866 136.925 28.819 135.545C30.9312 134.052 32.2116 132.54 32.224 132.525C32.2859 132.451 32.2766 132.341 32.2029 132.279C32.1292 132.217 32.0196 132.227 31.9576 132.3C31.9452 132.315 30.6884 133.799 28.6103 135.266C26.6994 136.614 23.6822 138.226 20.1595 138.241C20.0635 138.242 19.9861 138.32 19.9861 138.416C19.9873 138.512 20.0647 138.59 20.1608 138.59Z" fill="#0056C5"/>
<path d="M23.9309 139.82C27.0696 139.82 30.2001 138.028 30.3419 137.946C30.4249 137.897 30.4534 137.791 30.4057 137.707C30.3574 137.624 30.2509 137.596 30.1679 137.644C30.1313 137.665 26.4483 139.772 23.1827 139.433C23.0861 139.422 23.0018 139.493 22.9919 139.589C22.982 139.685 23.0514 139.771 23.1468 139.78C23.4069 139.807 23.6689 139.82 23.9309 139.82Z" fill="#0056C5"/>
<path d="M29.0323 134.119L27.3828 139.214L25.0847 134.654L25.6335 114.74L25.6546 113.99L26.5484 113.864L26.6723 114.874L29.0323 134.119Z" fill="white"/>
<path d="M26.6698 114.875L26.2404 115.412L25.6323 114.741L25.6534 113.99L26.546 113.864L26.6698 114.875Z" fill="white"/>
<path d="M24.509 112.931L26.096 114.65L27.3955 112.528L26.2614 110.591L24.509 112.931Z" fill="white"/>
<path d="M23.6694 107.758L23.1652 108.118C23.0264 108.216 22.8914 108.32 22.7638 108.433C22.3797 108.773 22.2435 109.008 22.3438 109.607C22.3593 109.7 22.3791 109.78 22.402 109.843L23.3615 114.466L26.2629 110.591C26.2617 110.59 24.1562 109.84 23.6694 107.758Z" fill="#0890FE"/>
<path d="M27.4954 107.943C27.4954 107.943 28.8259 109.205 28.435 110.71L27.8286 113.266L26.2615 110.589C26.2615 110.589 27.3839 109.907 27.4954 107.943Z" fill="#0890FE"/>
<path d="M10.1375 147.798C10.0551 148.694 11.1441 148.208 10.8362 146.394C10.529 144.58 11.4018 142.937 11.7778 142.99C12.155 143.043 11.4662 144.971 11.8013 145.666C12.1358 146.36 12.5681 145.011 12.9986 144.192C13.4452 143.341 13.4192 141.486 13.216 140.162C13.0129 138.837 15.4094 130.794 15.4218 128.464L15.7142 127.475L16.7833 123.857L18.457 118.192C18.457 118.192 17.4541 113.903 15.7637 114.271C15.7637 114.271 14.8687 117.259 13.9123 120.627C13.7506 121.199 13.5865 121.782 13.4248 122.364C12.7434 124.806 12.1029 127.217 11.8056 128.648C11.019 132.425 10.9583 140.277 10.9583 140.277C10.9583 140.277 9.57076 143.162 9.53793 144.445C9.502 145.815 10.2193 146.903 10.1375 147.798Z" fill="#FDA893"/>
<path d="M17.2288 111.728C17.1996 111.792 17.1117 111.593 17.0597 111.715C16.8639 112.168 15.9949 113.286 15.5656 114.376C15.5105 114.514 15.4541 114.658 15.3965 114.806C14.7783 116.397 11.3715 126.873 10.6753 135.813L13.9948 136.436C15.0465 130.587 15.7056 128.82 16.3523 125.934C16.6874 124.81 17.0349 123.731 17.3607 122.739C17.3613 122.736 17.3626 122.734 17.3638 122.732C17.4939 122.335 17.6215 121.953 17.7429 121.587C17.7447 121.58 17.7466 121.574 17.7497 121.569C17.7918 121.44 17.8327 121.314 17.8748 121.19V121.189C18.3604 119.718 18.737 118.549 18.8448 117.867C19.1341 116.031 18.3431 112.437 17.2288 111.728Z" fill="#0172D0"/>
<path d="M10.4767 135.172L10.2512 136.53L14.1833 137.149L14.4583 135.8L10.4767 135.172Z" fill="#0056C5"/>
<path d="M10.7465 137.296C10.7465 137.296 12.9194 137.135 13.8411 137.794L13.6484 139.068C13.6484 139.068 11.1088 138.783 10.516 138.816C10.516 138.817 10.4578 137.558 10.7465 137.296Z" fill="#001030"/>
<path d="M11.8423 138.156C11.8423 138.74 11.4496 139.213 10.9658 139.213C10.4821 139.213 10.0894 138.74 10.0894 138.156C10.0894 137.572 10.4821 137.099 10.9658 137.099C11.4496 137.099 11.8423 137.572 11.8423 138.156Z" fill="#0C375A"/>
<path d="M11.4563 138.119C11.4563 138.547 11.1699 138.893 10.8161 138.893C10.4622 138.893 10.1758 138.547 10.1758 138.119C10.1758 137.692 10.4622 137.346 10.8161 137.346C11.1699 137.345 11.4563 137.692 11.4563 138.119Z" fill="#005986"/>
<path d="M20.689 99.3603C20.689 102.273 22.4791 104.28 25.3873 104.28C28.2954 104.28 30.3222 102.122 30.3222 99.2096C30.3222 96.2976 28.6002 94.0903 25.692 94.0903C22.2047 94.0903 20.689 96.4477 20.689 99.3603Z" fill="#0C375A"/>
<path d="M20.689 99.36C20.689 99.36 21.0278 97.1596 20.689 96.0225C20.3501 94.8854 20.7045 94.7557 21.4564 94.5491C22.2084 94.3425 21.9247 93.412 22.647 93.2308C23.5234 93.0112 23.8393 93.5671 24.5077 92.7395C25.176 91.9126 25.7955 91.8679 26.4409 92.1527C27.2431 92.5069 27.4685 92.1948 28.5054 92.0416C29.5541 91.8865 30.3203 92.5844 30.4962 93.3084C30.6722 94.0324 29.9605 94.6527 30.2553 95.1695C30.5508 95.6862 30.5823 97.3587 29.7938 97.9611C29.0059 98.5629 20.689 99.36 20.689 99.36Z" fill="#0C375A"/>
<path d="M21.3436 100.614C21.3436 100.614 20.5359 99.5349 19.9351 100.427C19.3342 101.319 20.1834 103.954 21.6546 103.311L21.3436 100.614Z" fill="#FD896B"/>
<path d="M21.3313 102.499C21.2768 102.499 21.2273 102.463 21.2119 102.408C20.9842 101.593 20.1435 101.263 20.1355 101.26C20.0717 101.235 20.0389 101.164 20.0637 101.099C20.0878 101.035 20.1596 101.002 20.2233 101.027C20.2623 101.041 21.189 101.402 21.4513 102.34C21.4698 102.406 21.4315 102.475 21.3653 102.493C21.3535 102.498 21.3424 102.499 21.3313 102.499Z" fill="#D65C48"/>
<path d="M20.4826 102.089C20.4597 102.089 20.4362 102.083 20.4158 102.069C20.3582 102.032 20.3415 101.955 20.3787 101.897C20.3848 101.887 20.5333 101.66 20.8445 101.52C20.907 101.492 20.9806 101.52 21.0084 101.583C21.0363 101.646 21.0084 101.72 20.9459 101.748C20.7053 101.856 20.5884 102.03 20.5871 102.032C20.563 102.069 20.5234 102.089 20.4826 102.089Z" fill="#D65C48"/>
<path d="M29.6701 100.614C29.6701 100.614 30.4778 99.5349 31.0786 100.427C31.6795 101.319 30.8303 103.954 29.3591 103.311L29.6701 100.614Z" fill="#FD896B"/>
<path d="M29.6794 102.499C29.7338 102.499 29.7833 102.463 29.7988 102.408C30.0264 101.593 30.8671 101.263 30.8752 101.26C30.9389 101.235 30.9711 101.164 30.9469 101.099C30.9228 101.035 30.8511 101.002 30.7873 101.027C30.7477 101.041 29.8217 101.402 29.5594 102.34C29.5408 102.406 29.5792 102.475 29.6454 102.493C29.6571 102.498 29.6682 102.499 29.6794 102.499Z" fill="#D65C48"/>
<path d="M30.5278 102.089C30.5507 102.089 30.5742 102.083 30.5946 102.069C30.6522 102.032 30.6689 101.955 30.6318 101.897C30.6256 101.887 30.4771 101.66 30.1659 101.52C30.1035 101.492 30.0298 101.52 30.002 101.583C29.9742 101.646 30.002 101.72 30.0645 101.748C30.3051 101.856 30.4221 102.03 30.4233 102.032C30.4474 102.069 30.487 102.089 30.5278 102.089Z" fill="#D65C48"/>
<path d="M27.4958 105.546V108.166C27.4958 108.166 27.8483 110.619 25.8569 110.604C24.7989 110.596 23.6697 108.442 23.6697 108.442V105.73L27.4958 105.546Z" fill="#FDA893"/>
<path d="M27.4958 105.546V106.708C26.7878 107.496 25.5304 107.692 23.6697 107.417V105.73L27.4958 105.546Z" fill="#FD896B"/>
<path d="M30.2525 98.8157C30.2041 99.8337 30.1069 101.107 29.913 102.126C29.8647 102.38 29.8096 102.619 29.7489 102.833C29.1982 104.764 27.8212 108.075 23.9653 106.696C22.2626 106.088 21.4734 104.187 21.1216 102.256C20.8831 100.944 20.8466 99.6178 20.8645 98.6705C20.8831 97.7034 21.4102 96.8194 22.2502 96.3423C24.5259 95.0501 26.9274 95.5321 28.5088 96.1407C29.6064 96.5625 30.3088 97.642 30.2525 98.8157Z" fill="#FDA893"/>
<path d="M24.0857 100.768C24.0857 101.048 23.9422 101.275 23.7647 101.275C23.5871 101.275 23.4436 101.047 23.4436 100.768C23.4436 100.488 23.5871 100.261 23.7647 100.261C23.9422 100.261 24.0857 100.488 24.0857 100.768Z" fill="#0C375A"/>
<path d="M27.8167 100.768C27.8167 101.048 27.6732 101.275 27.4956 101.275C27.3181 101.275 27.1746 101.047 27.1746 100.768C27.1746 100.488 27.3181 100.261 27.4956 100.261C27.6732 100.261 27.8167 100.488 27.8167 100.768Z" fill="#0C375A"/>
<path d="M28.3697 99.2043C28.3697 99.2043 27.3551 98.8025 26.574 99.141L26.652 99.5763C26.652 99.5763 27.7986 99.4794 28.3759 99.7135C28.4279 99.5458 28.4353 99.3763 28.3697 99.2043Z" fill="#0C375A"/>
<path d="M22.4584 99.2043C22.4584 99.2043 23.473 98.8025 24.2541 99.141L24.176 99.5763C24.176 99.5763 23.0295 99.4794 22.4522 99.7135C22.4001 99.5458 22.3927 99.3763 22.4584 99.2043Z" fill="#0C375A"/>
<path d="M25.6324 102.963C25.4245 102.989 25.2086 102.933 25.1746 102.924C25.1084 102.906 25.0694 102.838 25.0874 102.771C25.1053 102.705 25.1734 102.666 25.2396 102.684C25.3565 102.715 25.6324 102.754 25.7394 102.67C25.7598 102.654 25.7877 102.623 25.7858 102.548C25.7778 102.111 25.4833 100.679 25.4808 100.664C25.4672 100.597 25.5099 100.531 25.5773 100.517C25.6448 100.503 25.7103 100.547 25.7239 100.614C25.7363 100.674 26.0258 102.083 26.0345 102.543C26.0376 102.717 25.959 102.815 25.8922 102.867C25.8192 102.924 25.7264 102.952 25.6324 102.963Z" fill="#FD896B"/>
<path d="M23.9338 103.711C24.0354 104.223 24.373 105.166 25.5103 105.166C26.6506 105.166 26.9702 104.305 27.0799 103.711H23.9338Z" fill="white"/>
<path d="M25.4143 105.935C25.7353 105.935 26.0081 105.772 26.0193 105.765C26.078 105.73 26.0966 105.653 26.0613 105.595C26.0261 105.536 25.9494 105.517 25.8906 105.553C25.8887 105.554 25.6642 105.686 25.4143 105.686C25.1847 105.686 24.9645 105.554 24.9627 105.553C24.9045 105.517 24.8278 105.535 24.7919 105.593C24.756 105.652 24.774 105.728 24.8321 105.764C24.8433 105.772 25.1111 105.935 25.4143 105.935Z" fill="#FD896B"/>
<path d="M30.1211 100.636H29.558C29.6206 100.069 29.415 99.3852 29.2452 98.9286C28.8606 97.8945 29.6794 97.4385 29.0167 96.9205C28.3545 96.4012 26.705 96.624 25.5584 96.5867C24.4045 96.5495 22.5499 96.5656 22.1002 96.6705C21.6487 96.7741 21.8964 97.5241 22.0618 98.1054C22.2284 98.6854 21.5087 99.3281 21.3879 99.9293C21.3532 100.102 21.3606 100.358 21.3879 100.636H20.9184C20.8626 99.9038 20.8539 99.2227 20.8645 98.6705C20.8831 97.7034 21.4102 96.8194 22.2501 96.3423C24.5259 95.0501 26.9274 95.5321 28.5087 96.1407C29.6063 96.5625 30.3088 97.642 30.253 98.8157C30.2258 99.374 30.1849 100.009 30.1211 100.636Z" fill="#0C375A"/>
<path d="M53.2727 75.4546C53.2727 75.4546 53.5016 79.4808 56.6751 79.4808C59.8487 79.4808 80.6899 79.4808 80.6899 79.4808C80.6899 79.4808 82.975 80.0106 84.2126 75.4546H53.2727Z" fill="#5655B9"/>
</svg>
