<svg width="240" height="242" viewBox="0 0 240 242" fill="none" xmlns="http://www.w3.org/2000/svg">
<path opacity="0.3" d="M120.565 3.76764C105.768 10.5817 98.034 26.5826 88.7942 40.0182C81.1666 51.0885 71.9132 60.9423 61.347 69.2463C53.4843 75.419 44.9011 80.7259 37.7751 87.7324C28.5604 96.5625 22.4957 108.177 20.5125 120.792C19.5683 127.063 19.9347 133.461 21.5886 139.583C23.2425 145.704 26.1478 151.415 30.1206 156.354C37.8872 165.556 49.1927 170.783 59.2973 177.341C68.9741 183.616 77.7228 191.22 85.2872 199.931C90.3314 205.767 94.8953 212.068 100.052 217.744C113.743 232.574 135.602 243.926 156.291 241.008C195.172 235.54 222.891 193.807 218.536 155.873C216.518 138.236 209.088 121.45 199.015 106.812C191.825 96.3421 183.13 86.61 178.806 74.6494C174.082 61.5665 175.059 47.1529 172.545 33.4607C167.837 8.19275 145.418 -7.64784 120.565 3.76764Z" fill="#3E4095"/>
<ellipse cx="120" cy="179.278" rx="120" ry="26.7222" fill="#F2F1F9"/>
<path d="M200.436 170.54C216.514 174.025 233.552 163.385 233.751 157.083C233.95 150.781 218.325 163.865 216.062 157.45C213.798 151.036 233.063 148.462 233.335 141.68C233.606 134.899 216.303 150.911 214.963 146.58C213.629 142.248 230.317 131.993 227.837 127.011C225.356 122.028 215.271 139.567 212.398 137.2C209.525 134.839 221.168 118.495 214.155 117.241C207.142 115.986 208.361 131.017 205.916 134.07C203.472 137.124 203.617 119.614 199.44 120.957C195.264 122.3 202.416 139.165 199.591 141.437C196.767 143.71 192.56 128.733 187.816 132.188C183.073 135.644 195.3 145.201 194.135 149.663C192.971 154.119 185.034 140.798 180.779 144.325C176.524 147.846 186.965 167.622 200.436 170.54Z" fill="#52D5BA"/>
<path d="M212.435 122.105C212.435 122.105 205.15 150.764 196.242 176.996" stroke="#4CA5A2" stroke-width="1.6286" stroke-miterlimit="10" stroke-linecap="round"/>
<path d="M226.913 144.774C226.913 144.774 206.961 154.438 200.418 163.231C200.418 163.231 200.66 147.556 190.472 136.833" stroke="#4CA5A2" stroke-width="1.6286" stroke-miterlimit="10" stroke-linecap="round"/>
<path d="M222.206 132.283C222.206 132.283 207.323 146.207 202.657 156.616C202.657 156.616 203.87 137.798 200.768 127.851" stroke="#4CA5A2" stroke-width="1.6286" stroke-miterlimit="10" stroke-linecap="round"/>
<path d="M229.75 158.941C229.75 158.941 202.766 163.326 199.374 167.705C199.374 167.705 191.902 151.284 182.626 146.899" stroke="#4CA5A2" stroke-width="1.6286" stroke-miterlimit="10" stroke-linecap="round"/>
<path d="M201.776 163.137C205.928 153.87 218.802 134.124 229.876 136.863C242.647 140.023 213.726 159.575 213.726 159.575C213.726 159.575 233.606 148.426 238.978 157.19C244.355 165.954 215.108 167.137 215.108 167.137C215.108 167.137 230.558 166.108 228.241 171.765C225.929 177.422 201.124 172.357 198.583 177.759C196.049 183.156 198.927 169.487 201.776 163.137Z" fill="#52D5BA"/>
<path d="M198.969 175.397C202.862 165.503 208.729 156.189 216.43 148.715C219.26 145.97 222.344 143.478 225.664 141.318" stroke="#4CA5A2" stroke-width="1.6286" stroke-miterlimit="10" stroke-linecap="round"/>
<path d="M199.108 175.599C207.461 165.48 220.16 158.977 233.226 158.657" stroke="#4CA5A2" stroke-width="1.6286" stroke-miterlimit="10" stroke-linecap="round"/>
<path d="M199.241 175.705C206.079 171.64 214.239 170.166 222.157 170.681" stroke="#4CA5A2" stroke-width="1.6286" stroke-miterlimit="10" stroke-linecap="round"/>
<path d="M195.735 174.605C197.165 170.486 202.102 167.492 205.935 165.948C215.32 162.166 230.516 158.995 237.632 168.545C239.895 171.587 240.601 175.694 239.467 179.292C237.397 185.866 229.913 188.854 223.54 189.76C215.018 190.967 202.977 189.215 197.316 182.097C196.338 180.866 195.584 179.428 195.385 177.883C195.24 176.723 195.385 175.629 195.735 174.605Z" fill="#52D5BA"/>
<path d="M197.014 177.049C197.014 177.049 223.172 170.131 237.499 174.865" stroke="#4CA5A2" stroke-width="1.6286" stroke-miterlimit="10" stroke-linecap="round"/>
<path d="M231.675 181.777C231.675 181.777 224.909 173.765 221.077 173.41C221.077 173.41 226.527 168.167 230.673 166.989" stroke="#4CA5A2" stroke-width="1.6286" stroke-miterlimit="10" stroke-linecap="round"/>
<path d="M220.914 163.982C220.914 163.982 213.225 169.296 213.05 173.995C213.05 173.995 219.912 180.64 222.49 185.907" stroke="#4CA5A2" stroke-width="1.6286" stroke-miterlimit="10" stroke-linecap="round"/>
<path d="M207.467 166.853C207.467 166.853 204.498 172.593 204.957 175.451C204.957 175.451 209.266 181.244 211.577 186.44" stroke="#4CA5A2" stroke-width="1.6286" stroke-miterlimit="10" stroke-linecap="round"/>
<path d="M68.0869 157.626C52.0495 161.117 35.055 150.46 34.8564 144.148C34.6577 137.835 50.2435 150.94 52.501 144.515C54.7585 138.09 35.5427 135.512 35.2718 128.72C35.0009 121.927 52.2602 137.966 53.5967 133.627C54.9271 129.289 38.2818 119.017 40.756 114.026C43.2302 109.036 53.2897 126.604 56.1552 124.233C59.0207 121.868 47.4081 105.497 54.4034 104.241C61.3986 102.984 60.1826 118.039 62.6207 121.097C65.0588 124.156 64.9143 106.618 69.0802 107.963C73.246 109.308 66.1123 126.201 68.9297 128.477C71.747 130.753 75.943 115.751 80.6747 119.213C85.4065 122.674 73.2099 132.246 74.3718 136.715C75.5336 141.178 83.4499 127.836 87.6941 131.369C91.9382 134.896 81.5235 154.704 68.0869 157.626Z" fill="#52D5BA"/>
<path d="M56.1194 109.113C56.1194 109.113 63.3855 137.817 72.2711 164.092" stroke="#4CA5A2" stroke-width="1.6286" stroke-miterlimit="10" stroke-linecap="round"/>
<path d="M41.6772 131.819C41.6772 131.819 61.5794 141.498 68.1051 150.306C68.1051 150.306 67.8643 134.605 78.0261 123.865" stroke="#4CA5A2" stroke-width="1.6286" stroke-miterlimit="10" stroke-linecap="round"/>
<path d="M46.3728 119.308C46.3728 119.308 61.2182 133.254 65.8716 143.68C65.8716 143.68 64.6616 124.832 67.7559 114.868" stroke="#4CA5A2" stroke-width="1.6286" stroke-miterlimit="10" stroke-linecap="round"/>
<path d="M38.8477 146.008C38.8477 146.008 65.7632 150.4 69.1464 154.786C69.1464 154.786 76.5992 138.339 85.8519 133.947" stroke="#4CA5A2" stroke-width="1.6286" stroke-miterlimit="10" stroke-linecap="round"/>
<path d="M66.7506 150.211C62.6088 140.929 49.7682 121.151 38.7214 123.895C25.9831 127.054 54.831 146.637 54.831 146.637C54.831 146.637 35.0011 135.471 29.6432 144.249C24.2794 153.026 53.4524 154.212 53.4524 154.212C53.4524 154.212 38.0412 153.181 40.3528 158.847C42.6585 164.513 67.4008 159.434 69.9352 164.851C72.4636 170.262 69.5921 156.571 66.7506 150.211Z" fill="#52D5BA"/>
<path d="M69.5499 162.492C65.667 152.582 59.8155 143.253 52.134 135.767C49.3106 133.017 46.2343 130.521 42.9233 128.358" stroke="#4CA5A2" stroke-width="1.6286" stroke-miterlimit="10" stroke-linecap="round"/>
<path d="M69.4115 162.693C61.0798 152.558 48.4137 146.044 35.3804 145.724" stroke="#4CA5A2" stroke-width="1.6286" stroke-miterlimit="10" stroke-linecap="round"/>
<path d="M69.2791 162.8C62.4585 158.728 54.3194 157.252 46.4211 157.768" stroke="#4CA5A2" stroke-width="1.6286" stroke-miterlimit="10" stroke-linecap="round"/>
<path d="M72.7766 161.698C71.3499 157.572 66.4255 154.573 62.6028 153.026C53.2417 149.239 38.0833 146.062 30.9857 155.628C28.7282 158.675 28.0238 162.788 29.1556 166.392C31.2204 172.977 38.6853 175.97 45.0424 176.877C53.5427 178.086 65.5526 176.331 71.1994 169.201C72.1746 167.968 72.9271 166.528 73.1258 164.981C73.2703 163.819 73.1258 162.723 72.7766 161.698Z" fill="#52D5BA"/>
<path d="M71.5004 164.146C71.5004 164.146 45.4097 157.217 31.1182 161.958" stroke="#4CA5A2" stroke-width="1.6286" stroke-miterlimit="10" stroke-linecap="round"/>
<path d="M36.9275 168.882C36.9275 168.882 43.6759 160.856 47.4986 160.501C47.4986 160.501 42.0626 155.249 37.9268 154.07" stroke="#4CA5A2" stroke-width="1.6286" stroke-miterlimit="10" stroke-linecap="round"/>
<path d="M47.6611 151.052C47.6611 151.052 55.3306 156.375 55.5051 161.081C55.5051 161.081 48.6604 167.737 46.0898 173.012" stroke="#4CA5A2" stroke-width="1.6286" stroke-miterlimit="10" stroke-linecap="round"/>
<path d="M61.0738 153.933C61.0738 153.933 64.0356 159.682 63.5781 162.545C63.5781 162.545 59.2798 168.347 56.9741 173.551" stroke="#4CA5A2" stroke-width="1.6286" stroke-miterlimit="10" stroke-linecap="round"/>
<path d="M196.279 170.076C195.916 170.076 195.607 169.781 195.607 169.423V163.667C195.607 160.652 193.132 158.206 190.081 158.206C187.03 158.206 184.555 160.663 184.555 163.667V169.423C184.555 169.781 184.256 170.076 183.883 170.076H180.171C179.808 170.076 179.509 169.781 179.509 169.423V163.667C179.509 157.901 184.256 153.209 190.092 153.209C195.927 153.209 200.674 157.901 200.674 163.667V169.423C200.674 169.781 200.376 170.076 200.002 170.076H196.279Z" fill="#FFAF2A"/>
<path d="M190.092 153.863C195.554 153.863 200.002 158.259 200.002 163.656V169.412H196.29V163.656C196.29 160.283 193.516 157.531 190.092 157.531C186.678 157.531 183.894 160.272 183.894 163.656V169.412H180.181V163.656C180.181 158.259 184.619 153.863 190.092 153.863ZM190.092 152.556C183.894 152.556 178.848 157.542 178.848 163.667V169.423C178.848 170.15 179.445 170.74 180.181 170.74H183.894C184.63 170.74 185.227 170.15 185.227 169.423V163.667C185.227 161.021 187.403 158.86 190.092 158.86C192.769 158.86 194.956 161.021 194.956 163.667V169.423C194.956 170.15 195.554 170.74 196.29 170.74H200.002C200.738 170.74 201.336 170.15 201.336 169.423V163.667C201.336 157.531 196.29 152.556 190.092 152.556Z" fill="white"/>
<path d="M177.696 194.091C176.8 194.091 176.074 193.374 176.074 192.488V170.361C176.074 169.476 176.8 168.759 177.696 168.759H202.488C203.384 168.759 204.109 169.476 204.109 170.361V192.478C204.109 193.363 203.384 194.08 202.488 194.08H177.696V194.091Z" fill="#FFAF2A"/>
<path d="M202.488 169.423C203.01 169.423 203.437 169.844 203.437 170.371V192.488C203.437 193.005 203.01 193.437 202.488 193.437H177.696C177.162 193.437 176.746 193.015 176.746 192.488V170.361C176.746 169.844 177.173 169.412 177.696 169.412H202.488V169.423ZM202.488 168.105H177.696C176.437 168.105 175.413 169.117 175.413 170.361V192.478C175.413 193.722 176.437 194.734 177.696 194.734H202.488C203.747 194.734 204.771 193.722 204.771 192.478V170.361C204.771 169.117 203.747 168.105 202.488 168.105Z" fill="white"/>
<path d="M202.488 169.423H197.645V186.859C197.645 187.376 197.218 187.797 196.685 187.797H176.736V192.478C176.736 192.994 177.163 193.427 177.685 193.427H202.477C203 193.427 203.427 193.005 203.427 192.478V170.361C203.437 169.845 203.011 169.423 202.488 169.423Z" fill="#FFAF2A"/>
<path d="M202.488 169.423H200.674V189.494C200.674 190.022 200.248 190.433 199.714 190.433H176.736V192.488C176.736 193.005 177.163 193.437 177.685 193.437H202.477C203 193.437 203.427 193.015 203.427 192.488V170.361C203.437 169.845 203.011 169.423 202.488 169.423Z" fill="#FFAF2A"/>
<path d="M194.092 180.207C194.092 178.025 192.3 176.254 190.081 176.254C187.873 176.254 186.07 178.025 186.07 180.207C186.07 181.894 187.137 183.338 188.651 183.907V185.763C188.651 186.543 189.292 187.175 190.081 187.175C190.87 187.175 191.51 186.543 191.51 185.763V183.907C193.025 183.338 194.092 181.894 194.092 180.207Z" fill="#FFAF2A" stroke="white" stroke-width="1.2486" stroke-miterlimit="10" stroke-linecap="round" stroke-linejoin="round"/>
<path d="M114.721 174.24L74.125 174.057C69.2421 174.035 65.3028 170.123 65.3211 165.318L65.7527 65.1669C65.7747 60.3584 69.7505 56.4785 74.637 56.5001L115.233 56.6836C120.116 56.7052 124.055 60.6176 124.037 65.4225L123.605 165.573C123.587 170.382 119.607 174.262 114.721 174.24Z" fill="#3E4095"/>
<path d="M115.174 60.1423L107.303 60.1063C106.246 60.1027 105.386 60.9773 105.383 62.0643L105.375 63.4679C105.372 64.5549 104.512 65.4295 103.455 65.4259L88.1115 65.3575C87.0545 65.3539 86.2059 64.4685 86.2096 63.3816L86.2169 61.9779C86.2205 60.8909 85.3683 60.0091 84.3149 60.0019L81.5461 59.9875L74.6589 59.9551C71.239 59.9407 68.4519 62.6581 68.4373 66.0234L68.0167 163.777C68.002 167.142 70.7599 169.881 74.1797 169.896L114.695 170.079C118.115 170.094 120.902 167.376 120.917 164.011L121.337 66.2573C121.355 62.8957 118.594 60.1567 115.174 60.1423Z" fill="white"/>
<ellipse cx="94.6788" cy="115.722" rx="11.0092" ry="10.8333" fill="#3E4095"/>
<path d="M88.8696 116.794C88.9697 116.95 89.5764 117.592 90.3678 118.483C91.3136 119.549 92.3799 120.75 92.5048 120.886C92.734 121.135 92.9027 120.963 93.2457 120.309C93.7205 119.404 94.6991 117.419 96.0746 115.607C97.4501 113.796 99.5133 111.797 100.004 111.422C100.496 111.048 100.725 110.798 100.398 110.673C100.07 110.548 97.5125 112.273 96.0203 113.815C94.4179 115.47 92.682 118.173 92.2517 118.236C91.907 118.287 90.2393 117.094 89.7665 116.814C89.2173 116.489 88.609 116.39 88.8696 116.794Z" fill="white"/>
<path d="M157.48 181.321L153.802 178.471L159.174 171.653L164.596 175.763L164.291 176.207C162.917 178.171 157.155 186.091 155.776 187.05C154.237 188.128 157.48 181.321 157.48 181.321Z" fill="#FF4267"/>
<path d="M155.311 186.952C155.246 186.903 157.22 184.324 159.719 181.193C162.217 178.062 164.296 175.567 164.361 175.616C164.426 175.665 162.452 178.244 159.953 181.375C157.455 184.506 155.376 187.006 155.311 186.952Z" fill="#263238"/>
<path d="M158.134 182.02C158.119 182.103 157.885 182.133 157.6 182.128C157.315 182.123 157.08 182.089 157.065 182.01C157.055 181.931 157.29 181.833 157.6 181.833C157.91 181.838 158.144 181.941 158.134 182.02Z" fill="#263238"/>
<path d="M158.029 182.64C158.004 182.718 157.74 182.713 157.43 182.669C157.12 182.625 156.86 182.566 156.86 182.482C156.86 182.404 157.135 182.33 157.47 182.374C157.805 182.423 158.054 182.566 158.029 182.64Z" fill="#263238"/>
<path d="M162.702 177.644C162.662 177.654 162.577 177.501 162.477 177.236C162.382 176.97 162.267 176.581 162.282 176.123C162.297 175.665 162.482 175.267 162.687 175.04C162.891 174.814 163.086 174.76 163.101 174.789C163.126 174.829 162.991 174.937 162.857 175.163C162.722 175.385 162.597 175.734 162.582 176.133C162.567 176.537 162.642 176.906 162.682 177.181C162.727 177.452 162.742 177.634 162.702 177.644Z" fill="#263238"/>
<path d="M157.425 181.508C157.395 181.429 157.545 181.301 157.74 181.178C157.934 181.055 158.119 180.977 158.179 181.036C158.234 181.095 158.124 181.286 157.899 181.424C157.68 181.567 157.455 181.581 157.425 181.508Z" fill="#263238"/>
<path d="M157.155 181.124C157.095 181.07 157.19 180.848 157.37 180.632C157.55 180.415 157.745 180.277 157.815 180.322C157.884 180.366 157.79 180.588 157.6 180.814C157.415 181.045 157.215 181.183 157.155 181.124Z" fill="#263238"/>
<path d="M140.467 136.141C140.467 136.141 132.237 157.677 133.346 161.701C134.456 165.724 156.649 181.701 156.649 181.701L162.675 173.159C162.675 173.159 145.365 159.667 145.312 158.921C145.256 158.175 152.185 140.283 152.185 140.283L140.467 136.141Z" fill="#263238"/>
<path d="M156.267 175.134C156.263 175.138 156.237 175.123 156.188 175.094C156.128 175.057 156.057 175.009 155.971 174.953C155.768 174.817 155.495 174.632 155.146 174.396C154.434 173.905 153.411 173.189 152.163 172.281C149.667 170.464 146.276 167.873 142.678 164.839C141.779 164.082 140.905 163.332 140.07 162.601C139.654 162.236 139.245 161.874 138.844 161.524C138.447 161.169 138.039 160.811 137.788 160.342C137.521 159.87 137.533 159.316 137.634 158.847C137.731 158.371 137.851 157.924 137.967 157.489C138.204 156.621 138.44 155.816 138.657 155.082C139.084 153.627 139.436 152.446 139.684 151.608C139.796 151.209 139.886 150.892 139.954 150.659C139.98 150.56 140.006 150.479 140.025 150.412C140.044 150.357 140.051 150.327 140.055 150.331C140.059 150.331 140.055 150.36 140.044 150.419C140.029 150.486 140.014 150.571 139.991 150.67C139.942 150.892 139.864 151.213 139.759 151.627C139.545 152.457 139.212 153.65 138.796 155.119C138.59 155.853 138.361 156.662 138.132 157.529C138.02 157.965 137.9 158.415 137.81 158.88C137.72 159.342 137.713 159.833 137.956 160.261C138.189 160.689 138.582 161.036 138.979 161.387C139.38 161.738 139.789 162.096 140.208 162.461C141.044 163.188 141.917 163.938 142.817 164.691C146.411 167.722 149.783 170.328 152.257 172.174C153.49 173.078 154.49 173.816 155.199 174.341C155.536 174.588 155.802 174.783 156 174.927C156.083 174.99 156.15 175.042 156.207 175.083C156.248 175.112 156.27 175.13 156.267 175.134Z" fill="#455A64"/>
<path d="M154.258 177.737C154.213 177.703 155.356 176.149 156.81 174.267C158.264 172.384 159.478 170.881 159.523 170.915C159.568 170.948 158.425 172.502 156.967 174.385C155.517 176.267 154.303 177.766 154.258 177.737Z" fill="#455A64"/>
<path d="M154.999 95.1831C155.734 96.6302 156.12 97.8853 157.578 98.631C158.234 98.9669 159.036 99.1589 159.433 99.7754C159.864 100.447 159.661 101.418 160.205 102.005C160.996 102.858 162.618 102.167 163.506 102.917C164.301 103.589 164.046 105.028 164.9 105.619C165.384 105.951 166.04 105.877 166.587 106.088C167.486 106.431 167.913 107.454 168.03 108.395C168.123 109.148 168.082 109.942 167.745 110.628C167.411 111.315 166.752 111.876 165.983 111.954C164.964 112.061 163.806 111.367 162.982 111.965C162.689 112.179 162.517 112.511 162.292 112.792C161.779 113.434 160.936 113.807 160.107 113.755C159.279 113.703 158.488 113.231 158.061 112.53C157.492 111.596 157.529 110.304 156.693 109.587C156.259 109.211 155.667 109.078 155.123 108.879C154.58 108.679 154.021 108.347 153.856 107.801C153.699 107.269 153.384 106.93 153.073 106.472C152.657 105.859 152.099 106.608 151.548 106.306C150.997 106.003 151.207 105.412 151.158 104.788" fill="#263238"/>
<path d="M145.305 116.106L138.192 113.762C138.192 113.762 135.048 122.681 134.085 122.77C128.748 123.249 123.037 121.507 121.036 120.817C120.833 120.592 120.601 120.322 120.342 119.99C120.121 119.706 119.953 119.384 119.84 119.045C119.705 118.631 119.544 118.078 119.555 117.745C119.567 117.336 119.068 117.125 118.836 117.42C118.604 117.716 118.547 118.842 119.072 120.053C119.6 121.263 117.734 120.3 117.048 119.96C116.362 119.621 114.189 118.668 113.919 118.794C113.518 118.978 113.646 119.432 114.339 119.757C115.04 120.086 117.041 121.193 116.842 121.54C116.647 121.884 113.177 120.108 113.177 120.108C113.177 120.108 112.499 119.61 112.255 120.005C111.817 120.717 115.643 122.334 116.01 122.482C116.265 122.581 116.063 122.969 115.793 122.847C115.516 122.722 112.375 120.998 111.922 121.717C111.573 122.271 115.058 123.08 115.508 123.792C115.958 124.505 112.93 122.913 112.619 123.456C112.503 123.659 112.443 123.825 114.32 124.49C115.231 124.815 116.943 125.21 118.495 125.542L118.487 125.56C118.487 125.56 137.206 133.807 141.242 125.856C145.522 117.428 145.305 116.106 145.305 116.106Z" fill="#E5BAAB"/>
<path d="M152.339 108.724L155.445 108.779L157.911 115.745L155.903 123.726C155.314 126.059 157.979 130.721 157.911 133.294L140.485 136.074L140.118 124.608L140.111 124.224L134.081 121.26L136.071 116.457C139.132 109.392 144.48 108.964 144.48 108.964L152.339 108.724Z" fill="#FF4267"/>
<path d="M140.216 124.14C140.208 124.151 140.069 124.095 139.841 123.944C139.62 123.789 139.305 123.538 139.035 123.124C138.762 122.722 138.57 122.131 138.623 121.485C138.649 120.847 138.855 120.134 139.301 119.529C139.639 119.056 140.073 118.687 140.538 118.44L140.485 118.51C140.628 117.458 140.759 116.553 140.86 115.911C140.961 115.269 141.029 114.896 141.051 114.896C141.074 114.9 141.044 115.28 140.976 115.926C140.909 116.572 140.804 117.48 140.673 118.532L140.669 118.576L140.62 118.602C140.204 118.831 139.781 119.189 139.466 119.636C139.046 120.212 138.844 120.88 138.81 121.489C138.75 122.102 138.911 122.648 139.155 123.043C139.395 123.446 139.687 123.704 139.886 123.874C140.096 124.051 140.223 124.128 140.216 124.14Z" fill="#455A64"/>
<path d="M140.871 116.409C140.822 116.431 140.65 116.188 140.489 115.863C140.328 115.538 140.234 115.254 140.287 115.228C140.335 115.206 140.508 115.449 140.669 115.774C140.83 116.099 140.924 116.383 140.871 116.409Z" fill="#455A64"/>
<path d="M152.129 108.823L152.665 96.7591L147.801 93.1304L143.379 95.2604C143.379 95.2604 143.233 100.728 143.379 103.097C143.525 105.467 145.953 105.722 145.953 105.722C145.953 105.722 145.897 107.11 145.841 108.572C145.773 110.34 147.22 111.802 149.015 111.787C150.69 111.769 152.058 110.469 152.129 108.823Z" fill="#E5BAAB"/>
<path d="M143.862 99.2433C143.862 99.4093 144.001 99.5457 144.169 99.5457C144.338 99.5457 144.477 99.4093 144.477 99.2433C144.477 99.0774 144.338 98.9409 144.169 98.9409C144.001 98.9409 143.862 99.0774 143.862 99.2433Z" fill="#263238"/>
<path d="M143.566 98.9149C143.607 98.9555 143.832 98.7637 144.166 98.7453C144.495 98.7231 144.746 98.8854 144.78 98.8411C144.799 98.8227 144.758 98.749 144.645 98.6752C144.537 98.6014 144.357 98.5351 144.151 98.5461C143.945 98.5572 143.772 98.6457 143.675 98.7305C143.577 98.819 143.544 98.8965 143.566 98.9149Z" fill="#263238"/>
<path d="M147.433 99.2433C147.433 99.4093 147.572 99.5457 147.741 99.5457C147.909 99.5457 148.048 99.4093 148.048 99.2433C148.048 99.0774 147.909 98.9409 147.741 98.9409C147.572 98.9409 147.433 99.0774 147.433 99.2433Z" fill="#263238"/>
<path d="M147.242 98.9149C147.284 98.9555 147.508 98.7637 147.842 98.7453C148.172 98.7231 148.423 98.8854 148.457 98.8411C148.475 98.8227 148.434 98.749 148.322 98.6752C148.213 98.6014 148.033 98.5351 147.827 98.5461C147.621 98.5572 147.448 98.6457 147.351 98.7305C147.254 98.819 147.224 98.8965 147.242 98.9149Z" fill="#263238"/>
<path d="M147.141 101.983C146.729 102.186 145.998 102.474 145.537 102.526C145.537 102.526 145.946 103.101 146.635 102.832C147.351 102.555 147.141 101.983 147.141 101.983Z" fill="white"/>
<path d="M145.953 105.723C145.953 105.723 147.576 105.741 149.142 104.663C149.142 104.663 148.419 106.405 146.006 106.306L145.953 105.723Z" fill="#D78776"/>
<path d="M159.669 103.574C159.456 103.585 159.137 103.552 158.796 103.378C158.451 103.212 158.114 102.899 157.844 102.47C157.571 102.046 157.361 101.518 157.132 100.968C156.682 99.8641 156.345 98.8415 156.113 98.0959C156.075 97.9777 156.045 97.8707 156.012 97.7673C155.993 97.6418 155.97 97.5274 155.948 97.4425C154.636 92.4995 150.222 91.5766 149.348 91.5766C148.412 91.5766 146.774 91.0709 144.387 93.511C143.986 93.9207 143.697 94.3342 143.48 94.7403C142.865 95.5007 142.539 96.3424 142.416 96.9736C142.269 97.6972 142.333 98.1512 142.359 98.1512C142.404 98.1512 142.412 97.7046 142.599 97.0179C142.693 96.6746 142.839 96.2686 143.06 95.8514C142.712 97.3834 143.304 98.5831 143.304 98.5831L144.158 98.3506L147.224 97.3243C146.946 96.3904 147.355 95.2275 147.587 94.6849L147.61 94.6627C148.31 98.2103 151.661 98.5388 151.661 98.5388L152.227 106.302C156.3 105.446 156.21 100.075 156.184 98.9818C156.368 99.5983 156.607 100.303 156.911 101.042C157.14 101.592 157.357 102.127 157.657 102.57C157.949 103.017 158.335 103.349 158.714 103.508C159.092 103.674 159.441 103.685 159.665 103.648C159.89 103.604 159.999 103.533 159.995 103.522C159.999 103.519 159.883 103.559 159.669 103.574Z" fill="#263238"/>
<path d="M146.043 101.672C146.043 101.654 145.837 101.632 145.5 101.606C145.414 101.602 145.331 101.591 145.316 101.528C145.294 101.466 145.327 101.37 145.365 101.266C145.436 101.052 145.511 100.827 145.593 100.591C145.751 100.107 145.886 99.6716 145.98 99.3504C146.073 99.0293 146.118 98.8299 146.103 98.8262C146.084 98.8225 146.006 99.0108 145.89 99.3246C145.773 99.6347 145.623 100.07 145.466 100.55C145.391 100.786 145.316 101.015 145.249 101.229C145.219 101.329 145.17 101.444 145.215 101.569C145.241 101.632 145.301 101.676 145.357 101.687C145.41 101.702 145.459 101.698 145.5 101.698C145.837 101.698 146.043 101.691 146.043 101.672Z" fill="#263238"/>
<path d="M152.92 101.573C152.905 101.178 152.905 100.772 153.047 100.403C153.193 100.034 153.512 99.7088 153.913 99.6682C154.374 99.6202 154.816 99.9967 154.891 100.447C154.962 100.897 154.7 101.363 154.295 101.588C153.894 101.809 153.381 101.806 152.957 101.625" fill="#E5BAAB"/>
<path d="M153.62 101.229C153.635 101.204 153.752 101.263 153.92 101.211C154.093 101.17 154.265 100.978 154.28 100.705C154.291 100.572 154.261 100.451 154.194 100.388C154.126 100.325 154.018 100.307 153.932 100.31C153.752 100.325 153.624 100.373 153.613 100.344C153.605 100.325 153.695 100.233 153.909 100.174C154.018 100.152 154.171 100.144 154.314 100.251C154.456 100.366 154.49 100.554 154.479 100.72C154.467 100.89 154.404 101.049 154.299 101.163C154.198 101.277 154.059 101.337 153.943 101.348C153.71 101.37 153.602 101.244 153.62 101.229Z" fill="#D78776"/>
<path d="M149.933 195.504V192.048L156.503 192.008L156.555 197.061L156.146 197.091C154.333 197.202 146.924 197.527 145.71 197.172C144.361 196.777 149.933 195.504 149.933 195.504Z" fill="#FF4267"/>
<path d="M145.56 196.858C145.56 196.795 148.018 196.748 151.05 196.748C154.082 196.748 156.54 196.795 156.54 196.858C156.54 196.917 154.082 196.969 151.05 196.969C148.018 196.969 145.56 196.917 145.56 196.858Z" fill="#263238"/>
<path d="M149.821 196.208C149.764 196.238 149.637 196.112 149.506 195.946C149.375 195.78 149.288 195.626 149.33 195.581C149.371 195.537 149.543 195.629 149.682 195.81C149.824 195.994 149.873 196.179 149.821 196.208Z" fill="#263238"/>
<path d="M149.401 196.438C149.341 196.46 149.225 196.305 149.105 196.106C148.985 195.906 148.902 195.729 148.951 195.689C149 195.652 149.168 195.777 149.296 195.991C149.427 196.209 149.457 196.416 149.401 196.438Z" fill="#263238"/>
<path d="M154.557 196.833C154.531 196.814 154.584 196.692 154.7 196.512C154.816 196.331 154.996 196.087 155.277 195.884C155.558 195.681 155.884 195.6 156.113 195.618C156.345 195.633 156.465 195.722 156.454 195.744C156.442 195.777 156.315 195.747 156.116 195.773C155.922 195.795 155.655 195.884 155.408 196.061C155.161 196.238 154.97 196.453 154.827 196.604C154.681 196.763 154.584 196.851 154.557 196.833Z" fill="#263238"/>
<path d="M149.798 195.559C149.828 195.508 149.978 195.533 150.143 195.589C150.308 195.648 150.439 195.718 150.432 195.777C150.424 195.836 150.255 195.862 150.068 195.795C149.881 195.736 149.768 195.611 149.798 195.559Z" fill="#263238"/>
<path d="M149.903 195.227C149.911 195.168 150.087 195.12 150.297 195.12C150.51 195.123 150.683 195.175 150.686 195.234C150.69 195.293 150.514 195.341 150.293 195.341C150.072 195.337 149.896 195.286 149.903 195.227Z" fill="#263238"/>
<path d="M144.064 135.55L140.463 136.14L142.535 138.651C143.131 150.475 142.985 161.926 143.536 167.637C143.618 168.504 147.336 195.707 146.969 195.068L157.911 195.519L154.644 168.201L156.191 143.937C157.87 141.072 158.361 137.676 157.563 134.461L157.293 133.368" fill="#455A64"/>
<path d="M151.608 92.85C151.065 92.6432 150.623 92.1744 150.484 91.617C150.345 91.0596 150.536 90.4283 150.979 90.0555C151.425 89.6826 152.11 89.6088 152.609 89.9041C153.017 90.1441 153.265 90.5834 153.418 91.0263C153.523 91.3217 153.594 91.6428 153.516 91.9455C153.4 92.3996 152.965 92.7208 152.508 92.8426C152.05 92.9644 151.563 92.9238 151.091 92.8795" fill="#263238"/>
<path d="M161.265 99.4282C161.243 99.4245 161.352 99.2547 161.288 98.9446C161.254 98.7933 161.175 98.6124 161.025 98.45C160.879 98.2875 160.654 98.1583 160.381 98.0845C160.107 98.0107 159.793 97.9959 159.455 98.018C159.118 98.0402 158.751 98.0993 158.353 98.1066C157.96 98.114 157.518 98.0623 157.136 97.8224C156.735 97.5825 156.54 97.1247 156.409 96.7113C156.15 95.877 155.708 95.1608 155.209 94.5923C154.707 94.0238 154.156 93.6067 153.658 93.3151C152.654 92.7355 151.912 92.6432 151.926 92.5989C151.926 92.5915 151.971 92.5952 152.058 92.61C152.144 92.6247 152.271 92.6395 152.429 92.6838C152.751 92.7576 153.204 92.9164 153.725 93.1932C154.242 93.4738 154.823 93.8909 155.344 94.4705C155.865 95.0464 156.33 95.7958 156.596 96.6485C156.731 97.062 156.903 97.4532 157.24 97.66C157.57 97.8704 157.979 97.9295 158.35 97.9258C158.728 97.9221 159.096 97.8704 159.444 97.8556C159.793 97.8372 160.126 97.8593 160.418 97.9516C160.711 98.0365 160.954 98.1916 161.108 98.3798C161.265 98.5644 161.337 98.7674 161.363 98.9335C161.385 99.0997 161.359 99.2326 161.329 99.3138C161.303 99.395 161.269 99.4319 161.265 99.4282Z" fill="#263238"/>
<path d="M154.344 101.551C154.355 101.533 154.524 101.673 154.524 101.994C154.52 102.145 154.456 102.345 154.295 102.489C154.141 102.633 153.898 102.725 153.647 102.688C153.396 102.647 153.197 102.481 153.096 102.297C152.991 102.108 152.995 101.902 153.043 101.758C153.145 101.455 153.351 101.374 153.354 101.396C153.377 101.418 153.227 101.536 153.182 101.791C153.16 101.917 153.171 102.072 153.261 102.208C153.343 102.345 153.501 102.467 153.684 102.496C153.868 102.526 154.051 102.459 154.179 102.356C154.306 102.252 154.366 102.108 154.389 101.983C154.419 101.725 154.314 101.566 154.344 101.551Z" fill="#E0E0E0"/>
<path d="M153.373 93.3152C153.324 93.3558 152.845 92.7578 152.02 92.3333C151.2 91.8977 150.428 91.8423 150.435 91.7832C150.428 91.7353 151.248 91.702 152.114 92.1598C152.983 92.6065 153.418 93.2968 153.373 93.3152Z" fill="#E8505B"/>
<path d="M154.771 101.101C154.771 101.075 154.876 101.067 154.943 101.189C154.973 101.244 154.988 101.333 154.947 101.421C154.902 101.514 154.797 101.573 154.692 101.576C154.587 101.58 154.482 101.532 154.43 101.455C154.374 101.381 154.366 101.3 154.374 101.241C154.393 101.115 154.464 101.071 154.482 101.089C154.509 101.104 154.494 101.163 154.516 101.237C154.539 101.314 154.591 101.385 154.689 101.377C154.782 101.373 154.82 101.311 154.812 101.233C154.808 101.163 154.764 101.126 154.771 101.101Z" fill="#E0E0E0"/>
<path d="M155.622 116.275C141.24 119.415 133.868 112.858 132.874 111.889C132.874 111.889 132.853 111.792 132.815 111.831C132.776 111.793 132.757 111.89 132.757 111.89C131.779 112.868 124.522 119.495 110.086 116.493C110.086 116.493 108.095 142.03 116.585 152.404C125.653 163.484 133.253 166.81 133.291 166.781C133.329 166.81 140.937 163.474 149.747 152.245C157.988 141.739 155.622 116.275 155.622 116.275Z" fill="white"/>
<path d="M153.536 118.91C140.484 121.707 133.796 115.87 132.894 115.008C132.894 115.008 132.875 114.922 132.84 114.957C132.806 114.922 132.788 115.009 132.788 115.009C131.901 115.879 125.314 121.78 112.215 119.108C112.215 119.108 110.405 141.844 118.107 151.079C126.333 160.942 133.229 164.511 133.263 164.486C133.298 164.511 140.204 160.933 148.199 150.935C155.679 141.581 153.536 118.91 153.536 118.91Z" fill="#3629B7"/>
<g opacity="0.02">
<path opacity="0.02" d="M132.828 117.262C132.828 117.262 132.847 117.171 132.884 117.207C132.92 117.17 132.94 117.262 132.94 117.262C133.868 118.153 140.635 124.089 153.796 121.554C153.71 119.224 153.571 117.766 153.571 117.766C140.509 120.567 133.807 114.689 132.904 113.82C132.904 113.82 132.884 113.733 132.85 113.768C132.815 113.734 132.797 113.821 132.797 113.821C131.91 114.696 125.323 120.626 112.207 117.926C112.207 117.926 112.093 119.384 112.047 121.714C125.262 124.152 131.917 118.161 132.828 117.262Z" fill="black"/>
</g>
<path d="M149.757 125.238C139.879 127.402 133.645 122.693 132.963 122.03C132.963 122.03 132.949 121.964 132.923 121.99C132.896 121.964 132.883 122.031 132.883 122.031C132.211 122.701 126.108 127.474 116.2 125.431C116.2 125.431 115.922 142.697 121.741 149.795C127.955 157.376 133.17 159.647 133.196 159.627C133.222 159.647 138.449 157.355 144.508 149.656C150.176 142.453 149.757 125.238 149.757 125.238Z" fill="#5655B9"/>
<path d="M152.208 108.45C152.219 108.45 152.253 108.59 152.249 108.849C152.249 109.107 152.2 109.488 152.032 109.923C151.859 110.355 151.556 110.846 151.065 111.245C150.581 111.647 149.907 111.917 149.18 111.965C148.453 112.005 147.748 111.817 147.22 111.474C146.688 111.134 146.324 110.684 146.099 110.278C145.878 109.864 145.785 109.495 145.751 109.237C145.717 108.978 145.736 108.834 145.743 108.834C145.788 108.823 145.762 109.421 146.223 110.207C146.455 110.591 146.811 111.008 147.317 111.319C147.82 111.632 148.479 111.802 149.165 111.765C149.851 111.721 150.484 111.474 150.945 111.104C151.41 110.735 151.713 110.278 151.897 109.871C152.26 109.037 152.163 108.447 152.208 108.45Z" fill="#455A64"/>
<path d="M151.421 193.049C151.417 193.049 151.41 193.016 151.398 192.949C151.387 192.872 151.372 192.776 151.353 192.654C151.316 192.381 151.267 192.001 151.203 191.521C151.076 190.535 150.904 189.11 150.705 187.342C150.308 183.813 149.817 178.929 149.375 173.528C148.936 168.124 148.629 163.229 148.449 159.681C148.359 157.909 148.295 156.473 148.262 155.48C148.247 154.997 148.235 154.613 148.228 154.336C148.228 154.214 148.224 154.118 148.224 154.037C148.224 153.971 148.228 153.937 148.228 153.934C148.232 153.934 148.235 153.967 148.243 154.033C148.25 154.111 148.258 154.21 148.265 154.329C148.284 154.605 148.307 154.986 148.337 155.469C148.397 156.477 148.483 157.906 148.588 159.667C148.801 163.21 149.131 168.105 149.573 173.506C150.015 178.907 150.484 183.787 150.844 187.32C151.027 189.073 151.173 190.498 151.278 191.502C151.327 191.986 151.365 192.366 151.391 192.639C151.402 192.761 151.41 192.857 151.417 192.934C151.425 193.016 151.425 193.049 151.421 193.049Z" fill="#263238"/>
<path d="M159.669 120.968L153.242 116.804C153.242 116.804 150.098 125.723 149.135 125.812C143.798 126.291 138.087 124.549 136.086 123.859C135.884 123.634 135.651 123.364 135.393 123.032C135.172 122.748 135.003 122.426 134.89 122.087C134.756 121.673 134.594 121.12 134.606 120.787C134.617 120.378 134.118 120.167 133.886 120.462C133.654 120.758 133.598 121.884 134.122 123.095C134.651 124.305 132.784 123.342 132.099 123.002C131.413 122.663 129.239 121.71 128.969 121.836C128.568 122.02 128.696 122.474 129.389 122.799C130.09 123.128 132.091 124.235 131.892 124.582C131.698 124.926 128.227 123.15 128.227 123.15C128.227 123.15 127.549 122.652 127.305 123.047C126.867 123.759 130.693 125.376 131.06 125.524C131.315 125.623 131.113 126.011 130.843 125.889C130.566 125.764 127.425 124.04 126.972 124.759C126.623 125.313 130.109 126.122 130.558 126.834C131.008 127.547 127.98 125.955 127.669 126.498C127.553 126.701 127.493 126.867 129.37 127.532C130.281 127.857 131.994 128.252 133.545 128.584L133.538 128.602C133.538 128.602 152.672 137.041 156.293 128.898C160.141 120.237 159.669 120.968 159.669 120.968Z" fill="#E5BAAB"/>
<path d="M155.446 108.775C155.446 108.775 161.296 109.455 160.673 116.306C160.044 123.294 157.11 128.455 157.11 128.455L149.442 124.49C151.162 121.057 152.481 117.506 153.31 113.807L155.446 108.775Z" fill="#FF4267"/>
<path d="M152.864 115.818C152.879 115.822 152.852 115.951 152.8 116.177C152.747 116.405 152.658 116.73 152.538 117.133C152.302 117.934 151.934 119.034 151.462 120.222C150.986 121.411 150.495 122.459 150.113 123.205C149.922 123.578 149.761 123.877 149.641 124.08C149.525 124.283 149.453 124.394 149.438 124.386C149.412 124.372 149.633 123.907 149.982 123.146C150.33 122.386 150.799 121.334 151.271 120.152C151.743 118.971 152.129 117.886 152.399 117.096C152.672 116.302 152.837 115.811 152.864 115.818Z" fill="#455A64"/>
<path d="M152.864 115.818C152.879 115.822 152.852 115.951 152.8 116.177C152.747 116.405 152.658 116.73 152.538 117.133C152.302 117.934 151.934 119.034 151.462 120.222C150.986 121.411 150.495 122.459 150.113 123.205C149.922 123.578 149.761 123.877 149.641 124.08C149.525 124.283 149.453 124.394 149.438 124.386C149.412 124.372 149.633 123.907 149.982 123.146C150.33 122.386 150.799 121.334 151.271 120.152C151.743 118.971 152.129 117.886 152.399 117.096C152.672 116.302 152.837 115.811 152.864 115.818Z" fill="#455A64"/>
<g clip-path="url(#clip0_225_2756)">
<path d="M67.5229 187.741C67.5229 186.938 67.7264 186.176 68.1353 185.486C69.1139 183.835 71.1619 182.889 73.7542 182.889C78.3125 182.889 83.5563 185.71 85.6915 189.312C86.841 191.252 86.9659 193.178 86.0421 194.736C85.0636 196.387 83.0156 197.333 80.4235 197.333C75.8652 197.333 70.6214 194.512 68.4862 190.91C67.8454 189.829 67.5229 188.752 67.5229 187.741ZM83.3703 192.473C83.3703 191.895 83.0723 191.285 82.8498 190.91C81.299 188.294 77.1338 186.084 73.754 186.084C72.386 186.084 71.3479 186.457 70.9768 187.083C70.5544 187.796 71.0153 188.785 71.3272 189.312C72.878 191.928 77.0432 194.138 80.423 194.138C81.791 194.138 82.8291 193.764 83.2002 193.138C83.3218 192.934 83.3703 192.706 83.3703 192.473Z" fill="#FFAF2A"/>
<path d="M79.6934 194.709C82.2538 194.709 83.2004 193.138 83.2004 193.138C82.8293 193.764 81.7912 194.138 80.4232 194.138C77.0437 194.138 72.8784 191.928 71.3274 189.312C71.0155 188.785 70.5546 187.796 70.9767 187.083C70.9767 187.083 70.132 188.409 71.1578 190.241C72.6432 192.892 76.3137 194.709 79.6934 194.709Z" fill="#FFAF2A"/>
<path d="M111.698 192.19C112.635 192.19 113.395 191.45 113.395 190.537C113.395 189.625 112.635 188.885 111.698 188.885C111.697 188.885 111.695 188.885 111.694 188.885L111.694 188.885L84.7167 188.885C84.466 188.885 84.2153 189.046 84.0241 189.369C83.6417 190.014 83.6417 191.06 84.0241 191.706C84.2153 192.028 84.466 192.19 84.7167 192.19L111.693 192.19L111.693 192.189C111.695 192.189 111.697 192.19 111.698 192.19Z" fill="#FFAF2A"/>
<path d="M105.67 190.87C106.295 190.87 107.054 190.443 107.367 189.916C107.526 189.648 107.537 189.407 107.428 189.233L107.43 189.233L105.018 185.156L104.958 185.058C104.951 185.043 104.943 185.029 104.934 185.018C104.886 184.947 104.83 184.881 104.77 184.823C104.519 184.576 104.169 184.423 103.786 184.423C103.26 184.423 102.802 184.708 102.566 185.126C102.46 185.318 102.399 185.536 102.399 185.771C102.399 186.004 102.459 186.225 102.566 186.415C102.58 186.441 102.597 186.467 102.612 186.492L105.038 190.595L105.039 190.594C105.142 190.764 105.36 190.87 105.67 190.87Z" fill="#FFAF2A"/>
<path d="M98.9144 190.87C99.5393 190.87 100.299 190.443 100.611 189.916C100.77 189.648 100.781 189.407 100.673 189.233L100.674 189.233L97.8573 184.455L97.7971 184.356C97.7898 184.342 97.7825 184.328 97.7728 184.316C97.7246 184.246 97.6691 184.18 97.6089 184.121C97.3582 183.875 97.0085 183.722 96.6249 183.722C96.0993 183.722 95.6409 184.006 95.4046 184.424C95.2985 184.617 95.2381 184.835 95.2381 185.07C95.2381 185.303 95.2983 185.524 95.4046 185.714C95.4192 185.74 95.4359 185.766 95.4504 185.791L98.2822 190.595L98.2834 190.594C98.3867 190.764 98.6044 190.87 98.9144 190.87Z" fill="#FFAF2A"/>
</g>
<path d="M176.2 95.4333L182.699 95.4338C182.549 95.2336 182.407 95.0307 182.285 94.8224L181.469 93.4327C180.019 90.9602 181.195 88.9551 184.096 88.9556C185.271 88.9555 186.548 89.2884 187.749 89.8436C186.281 86.5318 188.08 83.9651 192.095 83.9652C196.436 83.9651 201.715 86.9637 203.885 90.6633L205.105 92.7423C205.667 93.7005 205.961 94.6096 206.019 95.4338L211.417 95.4334C213.027 95.4338 214.984 96.5452 215.789 97.9168C216.594 99.2884 215.942 100.4 214.331 100.4L179.114 100.401C177.505 100.4 175.548 99.2889 174.743 97.9173C173.938 96.5457 174.59 95.4339 176.2 95.4333Z" fill="#F2F1F9"/>
<path d="M130.012 61.6868L134.038 61.6871C133.945 61.5631 133.857 61.4375 133.782 61.3084L133.277 60.4476C132.378 58.9161 133.107 57.6742 134.904 57.6745C135.631 57.6744 136.422 57.8806 137.166 58.2245C136.257 56.1731 137.371 54.5833 139.858 54.5833C142.547 54.5832 145.817 56.4406 147.161 58.7322L147.917 60.02C148.265 60.6135 148.447 61.1766 148.483 61.6872L151.827 61.6869C152.824 61.6871 154.036 62.3755 154.534 63.2251C155.033 64.0747 154.629 64.7634 153.632 64.7634L131.818 64.7637C130.821 64.7634 129.608 64.075 129.11 63.2254C128.611 62.3758 129.015 61.6872 130.012 61.6868Z" fill="#F2F1F9"/>
<path d="M26.2957 98.0267L31.2004 98.0272C31.0873 97.8763 30.9803 97.7228 30.8882 97.5658L30.2727 96.5169C29.1777 94.6506 30.0656 93.1378 32.2556 93.1379C33.1421 93.138 34.1058 93.3894 35.0115 93.808C33.9035 91.3085 35.2621 89.3716 38.2919 89.3716C41.5682 89.3716 45.5522 91.6349 47.1904 94.427L48.1107 95.9956C48.5349 96.7187 48.7563 97.4051 48.8002 98.0274L52.874 98.0271C54.0883 98.0269 55.5656 98.8664 56.1729 99.9015C56.7803 100.937 56.2879 101.776 55.0736 101.776L28.4949 101.775C27.2806 101.775 25.8033 100.936 25.196 99.9007C24.5886 98.8656 25.0814 98.0269 26.2957 98.0267Z" fill="#F2F1F9"/>
<defs>
<clipPath id="clip0_225_2756">
<rect width="14.4444" height="45.8716" fill="white" transform="translate(113.395 182.889) rotate(90)"/>
</clipPath>
</defs>
</svg>
